<svg width="24" height="24" viewBox="0 0 24 24" fill="none" xmlns="http://www.w3.org/2000/svg">
<path d="M17.4695 5.5366L18.4639 6.53097C18.5523 6.61936 18.5523 6.70775 18.4639 6.79614L6.7966 18.4634C6.70822 18.5518 6.61983 18.5518 6.53144 18.4634L5.53707 17.469C5.44868 17.3806 5.44868 17.2923 5.53707 17.2039L17.2043 5.5366C17.2927 5.44822 17.3811 5.44822 17.4695 5.5366Z" fill="#E43D39"/>
<path d="M7.06129 5.80177L18.1982 16.9387C18.2866 17.0271 18.2866 17.1155 18.1982 17.2039L17.2039 18.1982C17.1155 18.2866 17.0271 18.2866 16.9387 18.1982L5.80176 7.06131C5.71337 6.97292 5.71337 6.88453 5.80176 6.79614L6.79613 5.80177C6.88452 5.71338 6.97291 5.71338 7.06129 5.80177Z" fill="#E43D39"/>
</svg>
