<svg width="20" height="20" viewBox="0 0 20 20" fill="none" xmlns="http://www.w3.org/2000/svg">
<path d="M2.50008 8.11442C2.49802 8.24111 2.53451 8.36544 2.60471 8.47092C2.67492 8.5764 2.77553 8.65805 2.89321 8.70504L8.89383 11.1057L11.2945 17.1069C11.3408 17.223 11.4209 17.3225 11.5244 17.3926C11.6279 17.4627 11.7501 17.5001 11.8751 17.5H11.8851C12.0117 17.498 12.1347 17.4577 12.2378 17.3842C12.3409 17.3108 12.4193 17.2078 12.4626 17.0888L17.4626 3.33879C17.5035 3.22693 17.5116 3.10571 17.486 2.98939C17.4603 2.87307 17.4019 2.76651 17.3178 2.68225C17.2336 2.598 17.127 2.53955 17.0108 2.5138C16.8945 2.48805 16.7732 2.49607 16.6613 2.53691L2.91133 7.53692C2.79231 7.58031 2.68927 7.65881 2.61584 7.76205C2.5424 7.86528 2.50204 7.98837 2.50008 8.11504V8.11442Z" fill="#2A3246"/>
</svg>
