<svg width="21" height="21" viewBox="0 0 21 21" fill="none" xmlns="http://www.w3.org/2000/svg">
<path d="M5.25 18.375C6.2165 18.375 7 17.5915 7 16.625C7 15.6585 6.2165 14.875 5.25 14.875C4.2835 14.875 3.5 15.6585 3.5 16.625C3.5 17.5915 4.2835 18.375 5.25 18.375Z" stroke="#E43D39" stroke-width="1.5" stroke-linecap="round" stroke-linejoin="round"/>
<path d="M15.75 6.125C16.7165 6.125 17.5 5.3415 17.5 4.375C17.5 3.4085 16.7165 2.625 15.75 2.625C14.7835 2.625 14 3.4085 14 4.375C14 5.3415 14.7835 6.125 15.75 6.125Z" stroke="#E43D39" stroke-width="1.5" stroke-linecap="round" stroke-linejoin="round"/>
<path d="M10.5 16.625H14.4375C15.2497 16.625 16.0287 16.3023 16.603 15.728C17.1773 15.1537 17.5 14.3747 17.5 13.5625C17.5 12.7503 17.1773 11.9713 16.603 11.397C16.0287 10.8227 15.2497 10.5 14.4375 10.5H7.4375C6.62527 10.5 5.84632 10.1773 5.27199 9.60302C4.69766 9.02869 4.375 8.24973 4.375 7.4375C4.375 6.62528 4.69766 5.84632 5.27199 5.27199C5.84632 4.69766 6.62527 4.375 7.4375 4.375H10.5" stroke="#E43D39" stroke-width="1.5" stroke-linecap="round" stroke-linejoin="round"/>
</svg>
