<svg width="32" height="33" viewBox="0 0 32 33" fill="none" xmlns="http://www.w3.org/2000/svg">
<path d="M0 16.2871C0 25.1237 7.16344 32.2871 16 32.2871C24.8366 32.2871 32 25.1237 32 16.2871C32 7.45055 24.8366 0.287109 16 0.287109C7.16344 0.287109 0 7.45055 0 16.2871Z" fill="#25D366"/>
<path fill-rule="evenodd" clip-rule="evenodd" d="M21.6 10.5871C20.1 9.08711 18.1 8.28711 16 8.28711C11.6 8.28711 8 11.8871 8 16.2871C8 17.6871 8.40001 19.0871 9.10001 20.2871L8 24.2871L12.2 23.1871C13.4 23.7871 14.7 24.1871 16 24.1871C20.4 24.1871 24 20.5871 24 16.1871C24 14.0871 23.1 12.0871 21.6 10.5871ZM16 22.8871C14.8 22.8871 13.6 22.5871 12.6 21.9871L12.4 21.8871L9.89999 22.5871L10.6 20.1871L10.4 19.8871C9.69999 18.7871 9.39999 17.5871 9.39999 16.3871C9.39999 12.7871 12.4 9.78711 16 9.78711C17.8 9.78711 19.4 10.4871 20.7 11.6871C22 12.9871 22.6 14.5871 22.6 16.3871C22.6 19.8871 19.7 22.8871 16 22.8871ZM19.6 17.8871C19.4 17.7871 18.4 17.2871 18.2 17.2871C18 17.1871 17.9 17.1871 17.8 17.3871C17.7 17.5871 17.3 17.9871 17.2 18.1871C17.1 18.2871 17 18.2871 16.8 18.2871C16.6 18.1871 16 17.9871 15.2 17.2871C14.6 16.7871 14.2 16.0871 14.1 15.8871C14 15.6871 14.1 15.5871 14.2 15.4871C14.3 15.3871 14.4 15.2871 14.5 15.1871C14.6 15.0871 14.6 14.9871 14.7 14.8871C14.8 14.7871 14.7 14.6871 14.7 14.5871C14.7 14.4871 14.3 13.4871 14.1 13.0871C14 12.7871 13.8 12.7871 13.7 12.7871C13.6 12.7871 13.5 12.7871 13.3 12.7871C13.2 12.7871 13 12.7871 12.8 12.9871C12.6 13.1871 12.1 13.6871 12.1 14.6871C12.1 15.6871 12.8 16.5871 12.9 16.7871C13 16.8871 14.3 18.9871 16.3 19.7871C18 20.4871 18.3 20.2871 18.7 20.2871C19.1 20.2871 19.9 19.7871 20 19.3871C20.2 18.8871 20.2 18.4871 20.1 18.4871C20 17.9871 19.8 17.9871 19.6 17.8871Z" fill="white"/>
</svg>
