<svg width="1009" height="744" viewBox="0 0 1009 744" fill="none" xmlns="http://www.w3.org/2000/svg">
<mask id="mask0_198_77" style="mask-type:alpha" maskUnits="userSpaceOnUse" x="0" y="0" width="1009" height="744">
<path d="M1008.5 0.499985L1008.5 743.5L0.50009 743.5L0.500122 0.499941L1008.5 0.499985Z" fill="#E43D39" stroke="#F44D49"/>
</mask>
<g mask="url(#mask0_198_77)">
<path d="M941.947 -294.489C929.964 -223.544 875.56 -217.422 824.784 -201.557C799.529 -193.971 775.655 -183.416 757.34 -162.08C702.076 -95.7388 732.844 -34.9486 656.968 47.5975C641.234 64.7526 604.111 67.3538 559.514 65.6616C462.479 61.9616 338.779 47.8313 282.309 65.3689C277.848 66.8687 273.636 68.2244 269.906 69.8394C206.875 101.388 198.937 176.455 147.658 208.751C136.403 215.787 123.001 220.834 106.271 222.423C50.8851 228.574 -5.41566 232.563 -61.7499 237.648" stroke="white" stroke-opacity="0.3" stroke-miterlimit="10"/>
<path d="M1003.66 -187.604C991.69 -117.207 937.752 -110.278 886.993 -94.9609C862.22 -87.1152 837.864 -76.8192 819.798 -55.6279C764.568 9.6181 793.838 71.2731 717.114 149.466C700.663 165.959 663.557 168.013 618.977 165.773C520.994 161.006 400.355 151.027 344.068 170.611C339.606 172.111 335.395 173.466 331.898 175.485C270.049 208.504 260.912 282.648 209.633 314.944C198.129 322.124 184.727 327.172 168.23 329.164C112.828 335.862 56.5263 339.851 -0.0408588 344.532" stroke="white" stroke-opacity="0.3" stroke-miterlimit="10"/>
<path d="M1062.84 -85.0899C1050.89 -15.2399 997.188 -7.9074 946.911 7.6688C922.139 15.5145 898.265 26.0695 879.966 46.8572C824.77 111.008 852.308 173.125 774.969 247.369C758.036 263.602 720.48 264.301 675.917 261.513C576.985 255.68 459.409 249.851 403.305 271.482C398.843 272.982 394.864 274.741 391.368 276.76C330.467 310.845 320.132 384.067 269.086 416.767C257.581 423.947 244.18 428.994 227.682 430.986C172.263 438.233 115.729 441.818 59.1623 446.499" stroke="white" stroke-opacity="0.3" stroke-miterlimit="10"/>
<path d="M1119.35 12.7891C1107.65 82.4949 1054.43 90.0867 1004.15 105.663C979.381 113.509 955.758 123.92 937.459 144.707C882.528 208.166 908.086 270.889 830.148 340.636C812.749 356.062 774.728 355.954 730.414 353.022C630.534 346.122 516.02 344.444 460.098 368.121C455.869 370.025 451.89 371.784 448.394 373.802C388.442 408.954 377.141 481.658 326.095 514.357C314.591 521.538 300.939 526.729 284.675 529.125C229.489 536.774 172.722 539.957 115.655 544.926" stroke="white" stroke-opacity="0.3" stroke-miterlimit="10"/>
<path d="M1173.84 107.168C1161.91 176.47 1109.4 184.724 1059.38 200.157C1034.85 207.858 1010.98 218.413 992.931 239.057C937.801 301.017 961.861 364.604 883.308 430.402C865.426 445.569 827.188 444.51 782.658 440.626C681.829 432.661 570.394 434.585 514.156 460.598C509.927 462.501 505.948 464.26 502.452 466.279C443.681 502.9 431.182 574.682 379.887 607.525C368.132 614.85 354.964 620.301 338.466 622.293C283.03 630.087 226.497 633.672 169.43 638.641" stroke="white" stroke-opacity="0.3" stroke-miterlimit="10"/>
<path d="M1225.7 196.982C1214.01 266.14 1161.51 274.395 1111.96 290.086C1087.44 297.787 1064.05 308.602 1045.77 328.842C990.905 390.11 1012.75 453.9 933.832 515.605C915.235 530.108 876.781 528.098 832.501 524.07C730.723 515.038 622.35 521.113 566.295 549.172C562.066 551.075 558.32 553.238 554.824 555.257C497.251 592.8 483.304 663.804 432.242 697.051C420.721 704.779 407.319 709.826 391.055 712.222C335.852 720.419 278.835 723.746 221.768 728.715" stroke="white" stroke-opacity="0.3" stroke-miterlimit="10"/>
<path d="M1274.88 282.165C1263.21 350.775 1211.42 359.693 1161.88 375.384C1137.6 382.941 1114.21 393.756 1095.93 413.996C1041.1 474.168 1060.96 538.564 981.93 596.031C962.616 609.872 923.946 606.91 879.916 602.739C776.707 592.381 671.879 602.865 616.006 632.971C612.01 635.278 608.031 637.037 604.768 639.459C548.144 678.07 533.232 748.554 482.169 781.801C470.648 789.529 456.997 794.721 440.966 797.52C385.746 806.265 328.73 809.591 271.43 814.157" stroke="white" stroke-opacity="0.3" stroke-miterlimit="10"/>
<path d="M1321.88 363.573C1310.23 431.636 1258.67 440.957 1209.61 456.907C1185.57 464.868 1162.43 475.539 1143.91 495.375C1089.12 554.452 1107.02 618.906 1027.6 672.827C1007.81 686.409 968.685 682.092 924.672 677.373C820.514 665.949 718.766 680.036 663.059 712.736C659.063 715.043 655.317 717.206 652.054 719.628C596.379 759.305 580.518 828.723 529.439 862.518C517.917 870.246 504.266 875.437 488.234 878.236C433.247 887.385 375.998 890.308 318.199 895.162" stroke="white" stroke-opacity="0.3" stroke-miterlimit="10"/>
</g>
</svg>
