<svg width="530" height="530" viewBox="0 0 530 530" fill="none" xmlns="http://www.w3.org/2000/svg">
<mask id="mask0_548_94" style="mask-type:alpha" maskUnits="userSpaceOnUse" x="0" y="0" width="530" height="530">
<rect x="-2" y="2" width="526" height="526" rx="263" transform="matrix(-1 0 0 1 526 0)" fill="#E43D39" stroke="#F44D49" stroke-width="4"/>
</mask>
<g mask="url(#mask0_548_94)">
<rect x="-2" y="2" width="882" height="526" rx="263" transform="matrix(-1 0 0 1 882 0)" fill="#E43D39" stroke="#F44D49" stroke-width="4"/>
<path d="M-250.928 -188.289C-238.994 -142.253 -200.689 -135.599 -164.429 -122.888C-146.409 -116.76 -129.204 -108.801 -115.34 -94.2175C-73.409 -48.9553 -91.844 -11.571 -34.7026 45.1045C-22.8511 56.8813 3.20725 60.4125 34.2698 61.5696C101.855 64.0758 187.541 61.2423 227.862 75.311C231.053 76.4957 234.063 77.5755 236.749 78.7971C282.357 102.168 291.673 150.64 329.11 173.9C337.324 178.971 346.938 182.877 358.703 184.735C397.695 191.457 437.217 196.84 476.818 202.927" stroke="white" stroke-opacity="0.3" stroke-miterlimit="10"/>
<path d="M-288.656 -122.94C-276.762 -77.2557 -238.742 -70.1081 -202.521 -57.7486C-184.825 -51.4795 -167.297 -43.662 -153.614 -29.1832C-111.761 15.3758 -129.106 53.3892 -71.5912 107.32C-59.2732 118.708 -33.2538 121.888 -2.23053 122.693C65.9638 124.564 149.719 124.235 190.016 139.605C193.207 140.79 196.217 141.87 198.761 143.338C243.617 167.591 253.724 215.533 291.161 238.792C299.557 243.968 309.17 247.874 320.793 249.979C359.824 257.052 399.346 262.436 439.089 268.276" stroke="white" stroke-opacity="0.3" stroke-miterlimit="10"/>
<path d="M-324.842 -60.2633C-312.986 -14.9306 -275.109 -7.53627 -239.212 4.96507C-221.516 11.2342 -204.312 19.1933 -190.487 33.4253C-148.712 77.2812 -164.825 115.677 -107.079 167.11C-94.4365 178.356 -68.1717 180.691 -37.1876 181.145C31.6157 182.381 113.441 184.555 153.713 201.227C156.904 202.412 159.772 203.738 162.315 205.207C206.563 230.095 217.46 277.506 254.755 301.012C263.151 306.189 272.764 310.094 284.386 312.199C323.457 319.624 363.121 324.761 402.865 330.601" stroke="white" stroke-opacity="0.3" stroke-miterlimit="10"/>
<path d="M-359.393 -0.420473C-347.719 44.8073 -310.166 52.3435 -274.268 64.8448C-256.573 71.114 -239.55 78.9682 -225.725 93.2002C-184.172 136.6 -198.87 175.483 -140.932 224.066C-128.005 234.819 -101.455 236.66 -70.6526 237.009C-1.24037 237.61 78.6549 242.289 118.902 260.262C121.951 261.693 124.818 263.02 127.361 264.488C171 290.012 182.546 337.14 219.841 360.645C228.236 365.822 238.032 369.832 249.512 372.184C288.44 379.856 328.247 384.746 368.353 390.796" stroke="white" stroke-opacity="0.3" stroke-miterlimit="10"/>
<path d="M-392.707 57.2817C-380.891 102.263 -343.804 110.187 -308.089 122.584C-290.575 128.748 -273.37 136.707 -259.726 150.835C-218.109 193.284 -231.718 232.797 -173.548 278.881C-160.297 289.493 -133.644 290.736 -102.739 290.486C-32.7173 290.451 45.2086 297.283 85.7939 316.768C88.843 318.199 91.7104 319.525 94.2537 320.994C137.141 347.399 149.477 393.997 186.954 417.607C195.531 422.889 205.003 427.041 216.625 429.146C255.734 436.923 295.399 442.059 335.505 448.109" stroke="white" stroke-opacity="0.3" stroke-miterlimit="10"/>
<path d="M-424.41 112.193C-412.775 157.07 -375.689 164.994 -340.298 177.533C-322.784 183.697 -305.903 191.798 -292.117 205.678C-250.721 247.671 -262.773 287.425 -204.554 330.907C-190.836 341.129 -164.08 341.774 -133.356 341.42C-62.7256 340.749 13.27 350.085 53.8306 370.871C56.8796 372.302 59.6045 373.876 62.1478 375.344C104.244 402.28 117.553 448.452 154.887 472.309C163.322 477.837 172.936 481.743 184.416 484.094C223.382 492.118 263.372 497.113 303.478 503.163" stroke="white" stroke-opacity="0.3" stroke-miterlimit="10"/>
<path d="M-454.479 164.274C-442.883 208.799 -406.263 217.112 -370.872 229.651C-353.539 235.71 -336.659 243.811 -322.873 257.691C-281.555 298.981 -292.193 339.222 -234.106 379.996C-219.922 389.83 -193.062 389.876 -162.52 389.417C-90.9566 387.97 -17.2154 399.952 23.3205 422.039C26.2271 423.717 29.0945 425.044 31.4953 426.759C72.9828 454.33 86.9398 500.218 124.274 524.076C132.709 529.604 142.504 533.614 153.841 536.212C192.848 544.587 232.836 549.582 273.085 555.385" stroke="white" stroke-opacity="0.3" stroke-miterlimit="10"/>
<path d="M-483.215 214.047C-471.659 258.22 -435.181 266.78 -400.114 279.46C-382.924 285.766 -366.225 293.762 -352.297 307.396C-311.057 347.982 -320.321 388.359 -262.145 426.881C-247.636 436.573 -220.531 435.775 -190.028 434.964C-117.856 432.882 -46.0838 447.016 -5.53356 470.756C-2.62694 472.435 0.0980545 474.008 2.49891 475.723C43.3774 503.929 57.943 549.182 95.3162 573.391C103.751 578.919 113.547 582.93 124.884 585.528C163.748 594.15 203.879 598.898 244.492 604.911" stroke="white" stroke-opacity="0.3" stroke-miterlimit="10"/>
</g>
</svg>
