<svg width="982" height="284" viewBox="0 0 982 284" fill="none" xmlns="http://www.w3.org/2000/svg">
<mask id="mask0_524_120" style="mask-type:alpha" maskUnits="userSpaceOnUse" x="0" y="0" width="982" height="284">
<rect width="982" height="284" fill="#E43D39"/>
</mask>
<g mask="url(#mask0_524_120)">
<path d="M810.675 -406.154C794.27 -342.869 741.613 -333.721 691.766 -316.248C666.994 -307.824 643.343 -296.883 624.284 -276.835C566.642 -214.613 591.984 -163.221 513.432 -85.31C497.14 -69.1205 461.318 -64.2662 418.616 -62.6755C325.707 -59.2302 207.916 -63.1254 152.487 -43.7854C148.1 -42.1568 143.962 -40.6724 140.27 -38.993C77.5731 -6.86484 64.766 59.7695 13.3014 91.7436C2.00957 98.7152 -11.2066 104.084 -27.3796 106.639C-80.9812 115.879 -135.312 123.28 -189.751 131.647" stroke="white" stroke-opacity="0.3" stroke-miterlimit="10"/>
<path d="M862.541 -316.319C846.19 -253.518 793.925 -243.692 744.131 -226.701C719.805 -218.083 695.709 -207.337 676.9 -187.433C619.365 -126.178 643.209 -73.9211 564.144 0.216842C547.21 15.8722 511.442 20.2435 468.794 21.3509C375.048 23.9228 259.91 23.4704 204.515 44.5996C200.127 46.2282 195.99 47.7125 192.493 49.7311C130.83 83.0717 116.936 148.977 65.4712 180.951C53.9296 188.066 40.714 193.435 24.7368 196.329C-28.9187 206.053 -83.2502 213.454 -137.885 221.482" stroke="white" stroke-opacity="0.3" stroke-miterlimit="10"/>
<path d="M912.286 -230.158C895.988 -167.84 843.919 -157.675 794.571 -140.489C770.245 -131.871 746.594 -120.93 727.589 -101.365C670.163 -41.0769 692.312 11.706 612.929 82.4098C595.55 97.8701 559.444 101.08 516.85 101.704C422.267 103.402 309.782 106.392 254.421 129.311C250.034 130.939 246.092 132.763 242.596 134.781C181.769 168.995 166.788 234.171 115.519 266.484C103.978 273.6 90.7622 278.969 74.785 281.863C21.0755 292.07 -33.4514 299.131 -88.086 307.16" stroke="white" stroke-opacity="0.3" stroke-miterlimit="10"/>
<path d="M959.781 -147.893C943.734 -85.7186 892.109 -75.3588 842.762 -58.1733C818.436 -49.5551 795.035 -38.758 776.03 -19.1933C718.907 40.4674 739.112 93.9205 659.465 160.707C641.694 175.489 605.197 178.02 562.853 178.5C467.433 179.325 357.601 185.757 302.274 210.465C298.083 212.433 294.141 214.256 290.645 216.275C230.655 251.362 214.783 316.148 163.514 348.461C151.973 355.577 138.507 361.09 122.726 364.323C69.212 374.869 14.4895 381.592 -40.6446 389.908" stroke="white" stroke-opacity="0.3" stroke-miterlimit="10"/>
<path d="M1005.58 -68.5693C989.336 -6.73416 938.353 4.15968 889.256 21.201C865.179 29.675 841.528 40.6166 822.772 60.0371C765.561 118.392 784.269 172.71 704.304 236.062C686.088 250.649 649.448 252.358 606.962 252.015C510.705 251.967 403.581 261.359 347.788 288.144C343.597 290.111 339.655 291.935 336.159 293.954C277.202 330.253 260.243 394.31 208.725 426.768C196.933 434.028 183.913 439.736 167.936 442.629C114.173 453.32 59.6463 460.381 4.51223 468.698" stroke="white" stroke-opacity="0.3" stroke-miterlimit="10"/>
<path d="M1049.16 6.91686C1033.17 68.6078 982.185 79.5018 933.532 96.7381C909.456 105.212 886.25 116.349 867.299 135.43C810.392 193.157 826.959 247.806 746.926 307.58C728.068 321.633 691.287 322.519 649.051 322.032C551.956 321.111 447.486 333.944 391.727 362.519C387.536 364.487 383.79 366.649 380.294 368.668C322.424 405.697 304.129 469.168 252.806 501.965C241.211 509.564 227.995 514.933 212.213 518.166C158.646 529.196 103.673 536.063 48.539 544.379" stroke="white" stroke-opacity="0.3" stroke-miterlimit="10"/>
<path d="M1090.5 78.5119C1074.56 139.719 1024.22 151.148 975.563 168.384C951.736 176.714 928.531 187.85 909.58 206.931C852.78 263.692 867.404 319.011 787.552 375.062C768.053 388.581 731.129 388.645 689.143 388.014C590.766 386.024 489.394 402.495 433.67 432.859C429.674 435.166 425.732 436.989 422.432 439.347C365.4 477.249 346.213 540.331 294.89 573.128C283.295 580.727 269.83 586.24 254.244 589.812C200.623 601.325 145.65 608.192 90.3202 616.169" stroke="white" stroke-opacity="0.3" stroke-miterlimit="10"/>
<path d="M1130 146.934C1114.11 207.658 1063.97 219.425 1015.76 236.857C992.131 245.525 969.175 256.518 950.028 275.26C893.337 331.054 906.07 386.56 826.097 439.516C806.152 452.84 768.89 451.742 726.958 450.628C627.743 447.765 529.079 467.195 473.335 499.831C469.34 502.138 465.594 504.3 462.293 506.658C406.098 545.433 386.075 607.642 334.698 640.922C323.103 648.521 309.637 654.034 294.051 657.606C240.625 669.458 185.457 675.986 129.628 684.251" stroke="white" stroke-opacity="0.3" stroke-miterlimit="10"/>
</g>
</svg>
