<svg width="710" height="562" viewBox="0 0 710 562" fill="none" xmlns="http://www.w3.org/2000/svg">
<mask id="mask0_221_266" style="mask-type:alpha" maskUnits="userSpaceOnUse" x="0" y="0" width="710" height="562">
<rect x="2.99841" y="2.00003" width="705" height="558" fill="#E43D39" stroke="#F44D49" stroke-width="4"/>
</mask>
<g mask="url(#mask0_221_266)">
<path d="M667.455 -214.319C650.47 -163.517 607.139 -159.64 565.611 -148.737C544.989 -143.533 525.132 -136.185 508.484 -121.047C458.039 -73.9596 475.677 -30.0387 407.331 28.4822C393.154 40.6445 363.755 42.1584 328.951 40.5198C253.228 36.9416 157.701 25.6242 111.528 37.6738C107.868 38.7078 104.419 39.6407 101.321 40.7643C48.5029 62.8071 34.2505 116.606 -9.42793 139.297C-19.0089 144.24 -30.0617 147.735 -43.3559 148.716C-87.4609 152.603 -132.053 154.931 -176.788 158.044" stroke="white" stroke-opacity="0.3" stroke-miterlimit="10"/>
<path d="M704.436 -137.023C687.524 -86.6128 644.471 -82.1529 603.015 -71.6428C582.744 -66.2476 562.537 -59.0899 546.099 -44.053C495.798 2.24809 512.168 46.7755 443.623 102.164C428.955 113.844 399.627 114.965 364.895 112.934C288.542 108.581 194.973 100.272 148.725 113.792C145.064 114.826 141.615 115.759 138.657 117.174C86.6087 140.283 71.515 193.409 27.8366 216.1C18.0443 221.144 6.99186 224.639 -6.16266 225.911C-50.3394 230.192 -94.9316 232.52 -139.806 235.341" stroke="white" stroke-opacity="0.3" stroke-miterlimit="10"/>
<path d="M739.905 -62.8865C723.064 -12.8697 680.151 -8.11792 639.046 2.58285C618.775 7.97804 598.919 15.3262 582.342 30.0713C532.184 75.5865 547.146 120.429 478.54 172.978C463.522 184.467 433.986 184.611 399.326 182.187C322.343 177.06 230.732 171.758 184.409 186.749C180.748 187.783 177.439 189.008 174.48 190.423C123.062 214.307 107.127 266.759 63.5883 289.742C53.796 294.786 42.7436 298.281 29.5891 299.553C-14.6593 304.227 -59.3908 306.263 -104.266 309.084" stroke="white" stroke-opacity="0.3" stroke-miterlimit="10"/>
<path d="M773.772 7.89754C757.142 57.8133 714.58 62.7558 673.475 73.4565C653.204 78.8517 633.559 86.0989 616.982 100.844C567.108 145.865 580.451 191.123 511.856 240.439C496.558 251.345 466.744 250.905 432.295 248.38C354.681 242.479 265.03 240.185 218.63 256.646C215.11 257.972 211.8 259.197 208.842 260.612C158.054 285.27 141.417 337.341 97.8778 360.324C88.0855 365.368 76.8215 368.964 63.8066 370.528C19.6978 375.494 -25.1731 377.238 -70.4706 380.261" stroke="white" stroke-opacity="0.3" stroke-miterlimit="10"/>
<path d="M806.426 76.1497C789.657 125.774 747.586 131.199 706.692 141.798C686.632 147.092 666.776 154.441 650.41 169.085C600.539 213.028 612.615 258.893 543.96 305.369C528.311 316.083 498.428 314.959 463.912 311.749C385.668 305.073 298.046 305.395 251.149 323.529C247.628 324.855 244.319 326.08 241.36 327.495C191.342 353.219 173.864 404.617 130.113 427.701C120.11 432.845 109.197 436.632 96.0423 437.905C51.7222 442.971 6.99111 445.007 -38.3063 448.031" stroke="white" stroke-opacity="0.3" stroke-miterlimit="10"/>
<path d="M837.502 141.101C820.944 190.624 778.873 196.049 738.33 206.839C718.27 212.133 698.765 219.672 682.259 234.025C632.672 277.474 642.989 323.463 574.484 366.997C558.345 377.23 528.395 375.421 494.089 372.109C415.215 364.659 329.552 367.988 282.579 387.593C279.059 388.919 275.889 390.436 272.93 391.851C223.754 418.248 205.223 469.074 161.612 492.449C151.748 497.886 140.695 501.381 127.681 502.946C83.5001 508.304 38.4173 510.149 -6.88011 513.173" stroke="white" stroke-opacity="0.3" stroke-miterlimit="10"/>
<path d="M866.975 202.704C850.489 251.834 808.908 257.742 768.366 268.532C748.517 273.725 729.011 281.264 712.506 295.616C663.062 338.28 671.76 384.684 603.618 425.176C586.988 434.926 556.969 432.433 522.876 429.02C443.02 420.605 359.667 427.133 312.618 448.208C309.237 449.826 305.928 451.051 303.109 452.758C254.563 479.93 235.329 530.374 191.719 553.749C181.855 559.186 170.591 562.782 157.716 564.638C113.464 570.39 68.3813 572.235 22.9442 574.967" stroke="white" stroke-opacity="0.3" stroke-miterlimit="10"/>
<path d="M895.143 261.576C878.728 310.313 837.287 316.513 797.095 327.494C777.386 332.979 758.092 340.417 741.447 354.477C692.146 396.355 699.298 442.782 631.235 480.726C614.254 490.285 584.027 486.815 550.005 483.01C469.519 473.82 388.196 482.963 341.001 505.902C337.62 507.52 334.45 509.036 331.631 510.743C283.715 538.689 263.852 588.359 220.17 612.128C210.306 617.564 199.041 621.16 186.166 623.017C142.054 629.06 96.8316 630.613 50.9719 633.547" stroke="white" stroke-opacity="0.3" stroke-miterlimit="10"/>
</g>
</svg>
