<svg width="40" height="40" viewBox="0 0 40 40" fill="none" xmlns="http://www.w3.org/2000/svg">
<path d="M20 0C9.00585 0 0 8.88889 0 20C0 30.9941 8.88889 40 20 40C30.9941 40 40 31.1111 40 20C40 8.88889 30.9941 0 20 0ZM20 38.3626C9.82456 38.3626 1.63742 30.1754 1.63742 20C1.63742 9.82456 9.82456 1.63743 20 1.63743C30.1754 1.63743 38.3626 9.82456 38.3626 20C38.4795 30.0585 30.1754 38.3626 20 38.3626Z" fill="#7D8088"/>
<path d="M20 34.8538C20.7018 34.8538 21.0526 34.386 21.1696 33.8012C21.2866 34.0351 21.5205 34.269 21.7544 34.386C21.9883 34.386 22.3392 34.386 22.5731 34.269C22.807 34.152 23.0409 33.9181 23.1579 33.6842C23.2749 33.4503 23.2749 33.0994 23.1579 32.8655C23.5088 33.3333 23.9766 33.4503 24.5614 33.2164C25.2632 32.8655 25.4971 32.3976 25.1462 31.6959C24.3275 29.7076 23.5088 27.8362 22.6901 25.8479C22.5731 25.614 22.5731 25.4971 22.4562 25.2631C22.3392 25.1462 22.3392 25.0292 22.2222 24.9123C22.2222 24.7953 22.1053 24.7953 21.9883 24.6784C23.2749 24.7953 23.8597 25.2632 24.2105 25.4971C24.3275 25.614 24.3275 25.614 24.6784 25.4971C24.7953 25.4971 25.0293 25.4971 25.1462 25.4971C25.2632 25.614 25.4971 25.731 25.614 25.731C26.0819 26.0819 26.5497 26.4327 27.0176 26.7836C27.2515 27.0175 27.4854 27.2514 27.4854 27.6023C27.4854 27.8362 26.7836 28.421 26.6667 28.655C26.1988 29.1228 26.9006 29.8245 27.8363 29.8245C27.6023 29.5906 27.4854 29.3567 27.6024 29.1228C27.7193 29.1228 27.8363 29.1228 28.0702 29.0058C28.3041 28.8889 28.1871 28.3041 28.3041 28.1871C28.655 27.8362 29.5906 27.8362 30.2924 27.8362C30.5263 27.8362 30.8772 27.7193 30.7602 27.3684C31.1111 27.3684 31.2281 27.7193 31.2281 27.9532C31.579 27.7193 31.8129 26.9006 30.6433 26.6667C30.8772 26.4327 31.2281 26.4327 31.462 26.6667C31.6959 26.3158 31.1111 25.731 30.1754 26.0819C30.1754 26.0819 29.7076 25.4971 28.538 26.9006C28.4211 26.7836 28.1871 26.6667 28.0702 26.5497C27.6024 26.0819 26.4328 24.9123 26.4328 24.9123C26.4328 24.2105 26.3158 22.924 25.4971 22.2222C25.1462 21.8713 24.7953 21.7544 23.9766 21.5205C23.9766 21.5205 24.3275 20.9357 24.4445 20.7017C25.1462 21.4035 26.5497 21.6374 26.5497 20.4678C27.7193 21.6374 28.7719 20.9357 28.7719 20.2339C28.7719 20.5848 28.8889 20.9357 29.0059 21.2865C29.1228 21.6374 29.7076 23.1579 30.9942 23.1579C30.9942 23.6257 30.9942 25.3801 32.6316 25.731C32.7485 25.731 32.7485 25.731 32.8655 25.8479C33.5673 26.6667 36.2573 27.4854 36.4912 27.2515C36.2573 27.1345 35.9064 26.9006 35.9064 25.9649C35.9064 25.3801 35.7895 22.1053 35.7895 17.5438C35.7895 15.9064 35.6725 10.6433 30.4094 9.94151C29.5907 9.82455 28.8889 9.94151 28.1871 10.4093C27.2515 11.1111 26.7836 12.2807 27.3684 13.5672V13.6842C27.6023 14.0351 27.4854 14.269 27.2515 14.5029C26.7836 14.9708 26.3158 15.2047 25.731 15.3216C25.3801 15.3216 25.0293 15.2047 24.7953 14.9708C24.2105 14.386 23.8597 13.6842 23.6257 12.8655C23.3918 11.345 23.7427 10.5263 23.7427 10.4093C24.2105 9.59064 25.0292 8.88888 26.0819 8.88888C26.5497 7.95321 27.9532 8.30408 27.9532 8.30408C28.3041 8.42104 28.4211 8.42105 28.538 8.65496C28.538 8.65496 29.1228 7.71929 28.538 7.36842C27.9532 7.01754 26.6667 6.90058 26.6667 6.90058C26.6667 6.31578 25.731 5.84795 23.8597 6.19883C21.7544 6.5497 21.2866 5.73099 21.2866 5.73099C21.1696 6.78362 21.9883 7.25146 22.2222 7.48537C21.4035 8.42105 20.2339 10.1754 20 12.6316C19.7661 10.1754 18.5965 8.42105 17.7778 7.48537C18.0117 7.36841 18.8304 6.78362 18.7135 5.73099C18.7135 5.73099 18.2456 6.5497 16.1404 6.19883C14.386 5.84795 13.3333 6.31578 13.3333 6.90058C13.3333 6.90058 12.0468 7.01754 11.462 7.36842C10.8772 7.71929 11.462 8.65496 11.462 8.65496C11.579 8.538 11.6959 8.42104 12.0468 8.30408C12.0468 8.30408 13.4503 7.95321 13.9181 8.88888C14.9708 9.00584 15.7895 9.59064 16.2573 10.4093C16.2573 10.4093 16.7252 11.2281 16.3743 12.8655C16.2573 13.6842 15.7895 14.386 15.2047 14.9708C14.9708 15.2047 14.6199 15.4386 14.269 15.3216C13.6842 15.2047 13.2164 14.9708 12.7485 14.5029C12.5146 14.269 12.3977 14.0351 12.6316 13.6842V13.5672C13.2164 12.2807 12.7486 11.1111 11.8129 10.4093C11.1111 9.94151 10.4094 9.82455 9.59066 9.94151C4.44446 10.6433 4.21054 15.9064 4.21054 17.5438C4.21054 22.1053 4.09358 25.3801 4.09358 25.9649C4.09358 26.9006 3.74271 27.1345 3.50879 27.2515C3.85967 27.4854 6.54972 26.6667 7.13452 25.8479C7.13452 25.8479 7.25147 25.731 7.36843 25.731C9.00586 25.3801 9.00586 23.6257 9.00586 23.1579C10.2924 23.1579 10.8772 21.6374 10.9942 21.2865C11.1111 20.9357 11.2281 20.5848 11.2281 20.2339C11.2281 20.9357 12.2807 21.5205 13.4503 20.4678C13.4503 21.6374 14.8538 21.4035 15.5556 20.7017C15.6725 20.9357 16.0234 21.5205 16.0234 21.5205C15.2047 21.6374 14.8538 21.8713 14.5029 22.2222C13.5673 23.0409 13.5673 24.3275 13.5673 24.9123C13.5673 24.9123 12.3977 26.0819 11.9298 26.5497C11.8129 26.6667 11.579 26.7836 11.462 26.9006C10.1754 25.4971 9.82457 26.0819 9.82457 26.0819C8.8889 25.731 8.42106 26.3158 8.53802 26.6667C8.77194 26.4327 9.12282 26.5497 9.35674 26.6667C8.07019 26.9006 8.42107 27.8362 8.77195 27.9532C8.77195 27.7193 8.8889 27.3684 9.23978 27.3684C9.23978 27.7193 9.4737 27.8362 9.70761 27.8362C10.2924 27.8362 11.345 27.8362 11.6959 28.1871C11.9298 28.3041 11.8129 28.8889 11.9298 29.0058C12.0468 29.1228 12.2807 29.1228 12.3977 29.1228C12.3977 29.3567 12.3977 29.4737 12.1638 29.8245C13.0994 29.9415 13.6842 29.1228 13.3333 28.655C13.0994 28.421 12.5146 27.8362 12.5146 27.6023C12.5146 27.3684 12.7486 27.0175 12.9825 26.7836C13.4503 26.4327 13.9181 26.0819 14.386 25.731C14.5029 25.614 14.6199 25.4971 14.8538 25.4971C14.9708 25.3801 15.2047 25.3801 15.3217 25.4971C15.6725 25.614 15.6725 25.614 15.7895 25.4971C16.1404 25.2632 16.7252 24.7953 18.0117 24.6784C17.8947 24.6784 17.8947 24.7953 17.7778 24.9123C17.6608 25.0292 17.6608 25.1462 17.5439 25.2631C17.4269 25.3801 17.4269 25.614 17.31 25.8479C16.4912 27.8362 15.6725 29.7076 14.8538 31.6959C14.6199 32.3976 14.8538 32.8655 15.4386 33.2164C15.9064 33.4503 16.4912 33.3333 16.8421 32.8655C16.7252 33.2164 16.7252 33.4503 16.8421 33.6842C16.9591 33.9181 17.193 34.152 17.4269 34.269C17.6608 34.386 18.0117 34.386 18.2456 34.386C18.5965 34.269 18.7135 34.152 18.8304 33.8012C18.9474 34.386 19.2983 34.8538 20 34.8538Z" fill="#7D8088"/>
</svg>
