<svg width="343" height="188" viewBox="0 0 343 188" fill="none" xmlns="http://www.w3.org/2000/svg">
<mask id="mask0_125_1182" style="mask-type:alpha" maskUnits="userSpaceOnUse" x="0" y="0" width="343" height="188">
<rect width="343" height="188" fill="#E43D39"/>
</mask>
<g mask="url(#mask0_125_1182)">
<rect x="2" y="2" width="339" height="184" fill="#E43D39" stroke="#F44D49" stroke-width="4"/>
<path d="M251.693 -205.222C244.08 -175.855 219.645 -171.61 196.513 -163.502C185.018 -159.593 174.043 -154.515 165.198 -145.212C138.45 -116.338 150.21 -92.4902 113.758 -56.3357C106.198 -48.823 89.5745 -46.5704 69.7591 -45.8322C26.645 -44.2335 -28.0157 -46.041 -53.7374 -37.0664C-55.7733 -36.3106 -57.6933 -35.6218 -59.4066 -34.8425C-88.5009 -19.9335 -94.444 10.9879 -118.326 25.8254C-123.566 29.0605 -129.699 31.5521 -137.204 32.7374C-162.078 37.0255 -187.29 40.4598 -212.552 44.3427" stroke="white" stroke-opacity="0.3" stroke-miterlimit="10"/>
<path d="M275.761 -163.535C268.173 -134.392 243.92 -129.832 220.813 -121.948C209.525 -117.949 198.343 -112.962 189.615 -103.725C162.916 -75.3002 173.981 -51.0506 137.291 -16.6472C129.433 -9.38236 112.834 -7.35387 93.0439 -6.83999C49.5413 -5.64649 -3.88821 -5.85645 -29.5941 3.9485C-31.6301 4.70425 -33.5501 5.39305 -35.1725 6.32975C-63.7875 21.8013 -70.2348 52.3843 -94.1167 67.2218C-99.4726 70.5238 -105.605 73.0153 -113.019 74.358C-137.918 78.8704 -163.13 82.3047 -188.483 86.0302" stroke="white" stroke-opacity="0.3" stroke-miterlimit="10"/>
<path d="M298.844 -123.552C291.281 -94.6332 267.118 -89.9162 244.219 -81.9414C232.93 -77.9421 221.955 -72.8649 213.136 -63.786C186.487 -35.8094 196.766 -11.3157 159.928 21.4942C151.864 28.6685 135.109 30.1579 115.343 30.4475C71.4523 31.2357 19.2541 32.6232 -6.43596 43.2584C-8.47189 44.0141 -10.3011 44.8603 -11.9235 45.797C-40.15 61.6738 -47.1017 91.9185 -70.8928 106.913C-76.2487 110.215 -82.3814 112.707 -89.7955 114.05C-114.719 118.786 -140.022 122.063 -165.375 125.789" stroke="white" stroke-opacity="0.3" stroke-miterlimit="10"/>
<path d="M320.884 -85.3771C313.437 -56.5253 289.481 -51.7178 266.581 -43.743C255.293 -39.7437 244.434 -34.7334 235.615 -25.6544C209.107 2.03092 218.483 26.8357 181.523 57.8276C173.277 64.6872 156.34 65.8617 136.691 66.0844C92.4111 66.4674 41.4443 69.4522 15.77 80.9177C13.8249 81.8308 11.9957 82.677 10.3733 83.6137C-17.4646 99.8958 -24.8301 129.96 -48.6212 144.954C-53.977 148.257 -60.2257 150.815 -67.549 152.315C-92.3818 157.209 -117.776 160.329 -143.36 164.188" stroke="white" stroke-opacity="0.3" stroke-miterlimit="10"/>
<path d="M342.137 -48.5672C334.599 -19.8728 310.941 -14.8175 288.157 -6.90955C276.985 -2.97724 266.009 2.10021 257.306 11.1122C230.757 38.1916 239.439 63.3977 202.331 92.796C193.878 99.5651 176.875 100.358 157.16 100.199C112.492 100.177 62.7815 104.535 36.8913 116.964C34.9462 117.877 33.117 118.724 31.4946 119.66C4.136 136.505 -3.73376 166.23 -27.6408 181.292C-33.1125 184.661 -39.1544 187.31 -46.5686 188.653C-71.5173 193.614 -96.8201 196.891 -122.405 200.75" stroke="white" stroke-opacity="0.3" stroke-miterlimit="10"/>
<path d="M362.361 -13.5381C354.939 15.0894 331.28 20.1447 308.704 28.1432C297.531 32.0755 286.762 37.2434 277.968 46.098C251.561 72.8862 259.249 98.2459 222.11 125.984C213.359 132.505 196.29 132.916 176.691 132.69C131.634 132.263 83.1553 138.218 57.2808 151.478C55.3358 152.391 53.5975 153.395 51.975 154.331C25.1208 171.514 16.631 200.968 -7.18517 216.187C-12.566 219.714 -18.6988 222.205 -26.0221 223.705C-50.8799 228.824 -76.3899 232.01 -101.975 235.87" stroke="white" stroke-opacity="0.3" stroke-miterlimit="10"/>
<path d="M381.542 19.6852C374.145 48.0884 350.785 53.3916 328.208 61.39C317.151 65.2554 306.383 70.4232 297.588 79.2779C271.231 105.617 278.017 131.288 240.962 157.298C231.913 163.572 214.779 163.601 195.296 163.309C149.644 162.385 102.603 170.029 76.7441 184.119C74.8899 185.189 73.0608 186.036 71.5292 187.13C45.0635 204.718 36.16 233.991 12.3439 249.21C6.96303 252.736 0.714509 255.295 -6.51792 256.952C-31.4008 262.295 -56.9105 265.481 -82.5862 269.183" stroke="white" stroke-opacity="0.3" stroke-miterlimit="10"/>
<path d="M399.874 51.4361C392.502 79.615 369.233 85.0756 346.862 93.1645C335.897 97.1873 325.244 102.288 316.359 110.985C290.052 136.876 295.961 162.634 258.849 187.208C249.594 193.391 232.303 192.881 212.844 192.364C166.804 191.036 121.019 200.052 95.1514 215.197C93.2972 216.267 91.5588 217.271 90.0273 218.365C63.95 236.359 54.6583 265.226 30.8172 280.67C25.4363 284.196 19.1875 286.755 11.9551 288.412C-12.8369 293.912 -38.4375 296.941 -64.345 300.777" stroke="white" stroke-opacity="0.3" stroke-miterlimit="10"/>
</g>
</svg>
