<svg width="886" height="410" viewBox="0 0 886 410" fill="#E43D39" xmlns="http://www.w3.org/2000/svg">
<mask id="mask0_28_2625" style="mask-type:alpha" maskUnits="userSpaceOnUse" x="0" y="-1" width="886" height="411">
<path d="M0 39.9998C0 17.9084 17.9086 -0.000244141 40 -0.000244141H846C868.091 -0.000244141 886 17.9084 886 39.9998V370C886 392.091 868.091 410 846 410H40C17.9086 410 0 392.091 0 370V39.9998Z" fill="#E43D39"/>
</mask>
<g mask="url(#mask0_28_2625)">
<path fill-rule="evenodd" clip-rule="evenodd" d="M1102.55 -161.525C1118.05 -170.473 1130.51 -183.543 1136.44 -206.414L1137.41 -206.163C1131.41 -182.999 1118.75 -169.723 1103.05 -160.659C1091.23 -153.836 1077.67 -149.39 1063.95 -144.895C1059.5 -143.435 1055.03 -141.969 1050.59 -140.416L1050.59 -140.414C1032.6 -134.297 1015.49 -126.371 1001.71 -111.875C982.68 -91.3382 976.137 -72.4474 969.239 -52.5328C968.566 -50.5893 967.889 -48.636 967.197 -46.6705C959.408 -24.5427 949.699 -0.950934 921.055 27.4594C915.026 33.4507 905.432 37.3029 893.524 39.8087C881.603 42.3171 867.289 43.4904 851.749 44.0692L851.73 43.5696L851.749 44.0693C835.379 44.6763 817.948 44.9701 800.363 45.2666L798.648 45.2955C780.48 45.6021 762.178 45.9225 744.73 46.604C709.815 47.9676 678.388 50.7764 658.308 57.7814C657.906 57.9305 657.508 58.0777 657.113 58.2236C654.368 59.2386 651.796 60.1897 649.469 61.2474C626.788 72.8732 613.119 90.7404 600.415 108.679C599.382 110.137 598.356 111.596 597.332 113.051C585.768 129.488 574.446 145.581 557.154 156.324L557.153 156.325C548.886 161.429 539.21 165.359 527.378 167.228C501.17 171.746 474.717 175.661 448.169 179.589C435.215 181.506 422.24 183.426 409.258 185.421L409.106 184.433C422.1 182.436 435.082 180.515 448.038 178.597C474.581 174.67 501.014 170.758 527.212 166.242L527.219 166.241C538.915 164.394 548.467 160.512 556.627 155.474C573.737 144.844 584.944 128.918 596.531 112.451C597.549 111.005 598.57 109.553 599.599 108.101C612.312 90.1495 626.102 72.0977 649.023 60.3521L649.034 60.3468L649.044 60.342C651.409 59.2661 654.023 58.2998 656.768 57.2849C657.164 57.1385 657.563 56.9911 657.964 56.8422L657.974 56.8388C678.215 49.7764 709.789 46.9679 744.691 45.6047C762.152 44.9227 780.464 44.6022 798.631 44.2956L800.341 44.2668C817.929 43.9703 835.352 43.6766 851.712 43.0699C867.235 42.4917 881.481 41.3208 893.318 38.8301C905.167 36.3368 914.528 32.5351 920.35 26.7498L920.351 26.7494C948.848 -1.5157 958.492 -24.9538 966.254 -47.0026C966.945 -48.9673 967.622 -50.9218 968.296 -52.8682C975.194 -72.7855 981.8 -91.8601 1000.97 -112.557L1000.98 -112.562C1014.92 -127.232 1032.22 -135.223 1050.27 -141.36C1054.74 -142.93 1059.24 -144.405 1063.72 -145.871C1077.41 -150.358 1090.83 -154.759 1102.55 -161.525Z" fill="white" fill-opacity="0.3"/>
<path fill-rule="evenodd" clip-rule="evenodd" d="M1140.46 -96.2796C1155.88 -105.264 1168.26 -118.369 1174.17 -141.066L1175.14 -140.814C1169.16 -117.827 1156.58 -104.516 1140.96 -95.4156C1128.8 -88.3283 1114.76 -83.7864 1100.6 -79.2017C1096.63 -77.9157 1092.64 -76.6263 1088.68 -75.2764C1071.01 -69.0139 1053.58 -61.2288 1039.98 -46.841C1021.16 -26.8077 1014.36 -8.12067 1007.27 11.3879C1006.5 13.4907 1005.73 15.6031 1004.94 17.7277C996.845 39.583 986.768 62.6471 957.933 89.6845L957.931 89.6869C951.669 95.4763 941.973 99.1409 930.021 101.466C918.057 103.793 903.764 104.79 888.244 105.193C879.195 105.442 869.873 105.651 860.417 105.864C834.232 106.452 807.015 107.064 781.676 108.586C747.173 110.659 716.231 114.418 696.162 122.073L696.158 122.074C695.961 122.147 695.766 122.22 695.571 122.292C692.59 123.396 689.835 124.417 687.489 125.771L687.477 125.778C665.159 137.845 651.475 155.807 638.664 173.729C637.769 174.98 636.879 176.231 635.99 177.48C624.166 194.098 612.608 210.341 595.103 221.217L595.101 221.218C586.653 226.426 576.981 230.355 565.296 232.471C533.835 238.172 502.052 242.777 470.103 247.405C462.405 248.52 454.698 249.637 446.983 250.771L446.838 249.781C454.557 248.647 462.268 247.53 469.967 246.415C501.915 241.786 533.676 237.185 565.118 231.487C576.678 229.393 586.233 225.511 594.576 220.367C611.903 209.601 623.348 193.519 635.198 176.868C636.079 175.63 636.962 174.389 637.85 173.147C650.664 155.221 664.461 137.088 686.995 124.902C689.416 123.505 692.245 122.457 695.199 121.363C695.402 121.288 695.605 121.213 695.809 121.137C716.037 113.422 747.119 109.661 781.616 107.588C806.975 106.064 834.221 105.452 860.412 104.863C869.864 104.651 879.178 104.442 888.217 104.194L888.218 104.194C903.721 103.791 917.948 102.795 929.83 100.484C941.722 98.171 951.194 94.552 957.251 88.9538C985.93 62.0611 995.938 39.1536 1004.01 17.3801C1004.79 15.2581 1005.56 13.1461 1006.33 11.0414C1013.42 -8.46879 1020.29 -27.3369 1039.25 -47.5256L1039.25 -47.5267C1053.02 -62.0949 1070.64 -69.9445 1088.35 -76.22L1088.36 -76.2219C1092.35 -77.5849 1096.36 -78.8828 1100.35 -80.1743C1114.5 -84.7542 1128.4 -89.2521 1140.46 -96.2796Z" fill="white" fill-opacity="0.3"/>
<path fill-rule="evenodd" clip-rule="evenodd" d="M1176.79 -33.7684C1192.13 -42.7884 1204.47 -55.868 1210.36 -78.3898L1211.33 -78.1368C1205.36 -55.3258 1192.83 -42.042 1177.3 -32.9063C1165.21 -25.7988 1151.28 -21.1935 1137.24 -16.5525C1133.28 -15.2445 1129.31 -13.9337 1125.38 -12.5633C1107.71 -6.30305 1090.59 1.62412 1076.85 15.772C1058.22 35.3247 1051.16 53.7705 1043.84 72.869C1042.98 75.1056 1042.12 77.3511 1041.24 79.6084C1032.81 101.16 1022.36 123.696 993.411 149.483L993.411 149.483C986.984 155.201 977.143 158.616 965.096 160.667C953.036 162.72 938.692 163.418 923.195 163.645C888.793 164.263 851.151 165.115 817.079 167.896C782.991 170.678 752.536 175.386 732.479 183.689L732.47 183.693L732.462 183.696C729.292 184.872 726.451 186.187 723.935 187.64L723.93 187.642C701.911 200.028 688.18 218.02 675.264 235.92C674.433 237.071 673.606 238.222 672.781 239.37C660.779 256.067 649.052 272.38 631.512 283.435L631.508 283.438C623.061 288.646 613.39 292.574 601.707 294.69C571.445 300.442 540.823 304.821 510.097 309.215C501.141 310.496 492.176 311.778 483.208 313.096L483.063 312.106C492.039 310.787 501.009 309.504 509.969 308.223C540.69 303.83 571.282 299.454 601.52 293.708L601.525 293.707C613.084 291.614 622.638 287.731 630.981 282.588C648.348 271.641 659.966 255.481 671.994 238.751C672.811 237.615 673.63 236.476 674.453 235.335C687.371 217.432 701.211 199.275 723.438 186.772C726.006 185.29 728.896 183.953 732.105 182.762C752.319 174.396 782.909 169.681 816.998 166.899C851.106 164.116 888.778 163.263 923.179 162.645L923.181 162.645C938.668 162.418 952.948 161.721 964.928 159.682C976.919 157.64 986.532 154.265 992.746 148.736C1021.54 123.091 1031.91 100.713 1040.31 79.2442C1041.19 76.9913 1042.05 74.7475 1042.9 72.5102C1050.22 53.4093 1057.36 34.7851 1076.13 15.0805L1076.13 15.0769C1090.03 0.762085 1107.33 -7.22845 1125.05 -13.5062L1125.05 -13.5071C1129.02 -14.8908 1133.01 -16.2101 1136.98 -17.5235C1151.01 -22.1595 1164.8 -26.7203 1176.79 -33.7684Z" fill="white" fill-opacity="0.3"/>
<path fill-rule="evenodd" clip-rule="evenodd" d="M1211.66 26.0546C1226.9 17.0129 1239.11 3.92452 1244.91 -18.5455L1245.88 -18.2956C1240 4.46224 1227.6 17.7558 1212.17 26.9145C1200.05 34.1072 1186.04 38.7577 1171.89 43.4536C1168.07 44.721 1164.24 45.9917 1160.43 47.3165C1142.76 53.5767 1125.83 61.3991 1112.09 75.5468C1093.79 94.6545 1086.45 112.866 1078.93 131.509C1077.94 133.958 1076.95 136.414 1075.94 138.88C1067.16 160.142 1056.31 182.088 1027.25 206.449L1027.25 206.45C1020.68 211.916 1010.7 215.082 998.571 216.933C986.431 218.787 972.063 219.335 956.659 219.509L956.658 219.509C921.959 219.809 884.65 221.129 850.991 224.618C817.321 228.108 787.354 233.765 767.307 242.716C767.306 242.717 767.304 242.718 767.303 242.718L766.744 242.98C763.903 244.313 761.254 245.556 758.89 246.92C737.171 259.624 723.428 277.707 710.425 295.617C709.72 296.589 709.016 297.56 708.314 298.53C696.087 315.416 684.153 331.896 666.427 343.068L666.422 343.071C657.976 348.279 648.125 352.311 636.589 354.673L636.586 354.674C608.446 360.22 579.842 364.314 551.012 368.44C539.944 370.024 528.843 371.612 517.722 373.29L517.573 372.301C528.711 370.621 539.822 369.031 550.895 367.446C579.715 363.322 608.279 359.234 636.391 353.693C647.813 351.354 657.552 347.365 665.895 342.221C683.452 331.155 695.279 314.824 707.534 297.902C708.227 296.946 708.92 295.988 709.616 295.03C722.619 277.119 736.468 258.876 758.387 246.056L758.389 246.055C760.792 244.668 763.479 243.408 766.308 242.08L766.886 241.809L766.895 241.805C787.095 232.784 817.198 227.116 850.888 223.623C884.591 220.13 921.935 218.81 956.649 218.509L956.653 219.009L956.648 218.509C956.648 218.509 956.649 218.509 956.649 218.509C972.047 218.335 986.354 217.787 998.421 215.945C1010.5 214.101 1020.25 210.969 1026.61 205.683L1026.93 206.066L1026.61 205.682C1026.61 205.682 1026.61 205.682 1026.61 205.683C1055.5 181.461 1066.27 159.674 1075.01 138.498C1076.03 136.039 1077.02 133.587 1078 131.139C1085.52 112.494 1092.93 94.1083 1111.36 74.8544L1111.37 74.8518C1125.27 60.5369 1142.38 52.6512 1160.1 46.3735L1160.1 46.3726C1163.94 45.0354 1167.8 43.7567 1171.63 42.4843C1185.76 37.7926 1199.64 33.1865 1211.66 26.0546Z" fill="white" fill-opacity="0.3"/>
<path fill-rule="evenodd" clip-rule="evenodd" d="M1245.1 83.7235C1260.22 74.6289 1272.35 61.5041 1278.22 39.1546L1279.19 39.4087C1273.25 62.0403 1260.93 75.3683 1245.62 84.5804C1233.33 91.9752 1219.09 96.7246 1204.71 101.52C1201.23 102.683 1197.73 103.849 1194.25 105.056C1176.76 111.211 1159.65 119.139 1146.09 133.182L1146.08 133.185C1127.89 151.746 1120.29 169.727 1112.57 188.031C1111.49 190.578 1110.41 193.132 1109.3 195.694C1100.21 216.682 1089.03 238.161 1059.86 261.273C1053.12 266.665 1043.04 269.643 1030.83 271.252C1018.61 272.863 1004.19 273.111 988.736 272.986C953.74 272.969 916.776 274.667 883.495 278.803C850.203 282.941 820.64 289.512 800.422 299.218L800.419 299.22L799.852 299.486C797.012 300.818 794.365 302.06 792.002 303.423C770.655 316.569 756.9 334.742 743.77 352.644C743.259 353.342 742.748 354.04 742.237 354.736C729.669 371.894 717.412 388.628 699.313 400.03L699.308 400.033C690.688 405.341 681.16 409.519 669.468 411.637C639.644 417.567 609.493 421.964 579.085 426.397C569.604 427.78 560.098 429.166 550.569 430.603L550.42 429.615C559.96 428.175 569.473 426.788 578.959 425.405C609.363 420.972 639.48 416.581 669.278 410.655L669.286 410.654C680.836 408.562 690.249 404.436 698.782 399.183C716.715 387.884 728.869 371.292 741.468 354.094C741.966 353.414 742.464 352.734 742.964 352.053C756.092 334.154 769.948 315.828 791.484 302.568L791.49 302.564L791.496 302.561C793.899 301.174 796.586 299.913 799.415 298.586L799.99 298.317C799.99 298.316 799.991 298.316 799.992 298.316C820.359 288.538 850.051 281.952 883.372 277.811C916.705 273.669 953.714 271.969 988.739 271.986L988.743 271.986C1004.19 272.111 1018.55 271.862 1030.7 270.261C1042.86 268.658 1052.72 265.709 1059.24 260.491L1059.24 260.49C1088.24 237.516 1099.33 216.197 1108.39 195.296C1109.49 192.743 1110.57 190.195 1111.64 187.65C1119.37 169.344 1127.03 151.19 1145.37 132.486C1159.09 118.276 1176.38 110.285 1193.92 104.112L1193.92 104.111C1197.43 102.894 1200.95 101.722 1204.44 100.554C1218.81 95.7614 1232.92 91.0557 1245.1 83.7235Z" fill="white" fill-opacity="0.3"/>
<path fill-rule="evenodd" clip-rule="evenodd" d="M1277 138.562C1292.06 129.463 1304.15 116.364 1309.93 94.0679L1310.89 94.3189C1305.04 116.899 1292.77 130.201 1277.52 139.418C1265.42 146.735 1251.42 151.485 1237.31 156.272C1233.69 157.499 1230.07 158.728 1226.46 160.004L1226.46 160.004C1208.98 166.157 1192.18 174.227 1178.47 188.03C1160.61 206.155 1152.74 223.844 1144.81 241.681C1143.59 244.43 1142.36 247.183 1141.1 249.942C1131.64 270.61 1120.05 291.499 1090.85 313.307C1083.88 318.5 1073.66 321.229 1061.39 322.626C1049.11 324.025 1034.71 324.097 1019.35 323.92C984.057 323.585 947.427 325.75 914.559 330.594C881.682 335.439 852.606 342.96 832.397 353.316L832.39 353.32L832.382 353.324C829.359 354.743 826.654 356.304 824.112 357.771C803.156 371.183 789.355 389.386 776.098 407.279C775.698 407.819 775.298 408.36 774.898 408.9C762.081 426.212 749.575 443.104 731.385 454.729C722.892 460.294 713.219 464.222 701.685 466.584C672.298 472.635 642.325 476.965 612.176 481.321C602.331 482.743 592.466 484.168 582.596 485.657L582.447 484.668C592.331 483.177 602.204 481.751 612.055 480.328C642.197 475.973 672.128 471.649 701.484 465.605C712.908 463.264 722.462 459.381 730.839 453.891L730.844 453.888C748.877 442.364 761.285 425.605 774.135 408.25C774.521 407.728 774.908 407.206 775.295 406.683C788.548 388.795 802.448 370.446 823.583 356.923L823.592 356.917L823.611 356.906C826.148 355.441 828.885 353.861 831.949 352.422C852.301 341.994 881.5 334.455 914.414 329.605C947.341 324.752 984.024 322.584 1019.36 322.92C1034.72 323.097 1049.07 323.023 1061.28 321.633C1073.5 320.24 1083.5 317.535 1090.25 312.506C1119.27 290.833 1130.77 270.104 1140.19 249.526C1141.45 246.779 1142.67 244.033 1143.89 241.287C1151.82 223.447 1159.76 205.59 1177.76 187.327L1177.76 187.326C1191.62 173.369 1208.59 165.236 1226.13 159.061C1229.76 157.774 1233.41 156.538 1237.04 155.306C1251.14 150.522 1265 145.817 1277 138.562Z" fill="white" fill-opacity="0.3"/>
<path fill-rule="evenodd" clip-rule="evenodd" d="M1307.34 190.531C1322.27 181.379 1334.23 168.271 1340 146.148L1340.96 146.4C1335.13 168.803 1322.99 182.113 1307.86 191.384C1295.61 198.895 1281.38 203.76 1267 208.674C1263.68 209.809 1260.35 210.948 1257.04 212.122L1257.04 212.122C1239.74 218.171 1222.94 226.24 1209.23 240.044L1209.23 240.045C1191.56 257.696 1183.44 275.137 1175.31 292.591C1173.96 295.478 1172.62 298.365 1171.23 301.254C1161.44 321.617 1149.53 341.952 1120.39 362.405L1120.39 362.407C1113.19 367.399 1102.82 369.879 1090.5 371.064C1078.16 372.251 1063.78 372.147 1048.51 371.917L1048.51 371.917C976.983 370.471 903.349 382.451 862.925 404.475C861.906 405.063 860.908 405.601 859.939 406.122C858.092 407.117 856.355 408.052 854.796 409.166L854.789 409.171L854.782 409.175C834.12 422.907 820.305 441.203 806.96 459.109L806.252 460.059C793.172 477.612 780.423 494.721 761.999 506.495C753.507 512.06 743.656 516.09 732.271 518.7L732.264 518.701C700.253 525.574 667.578 530.173 634.662 534.805C627.447 535.82 620.221 536.837 612.987 537.88L612.844 536.89C620.086 535.846 627.317 534.829 634.536 533.813C667.449 529.181 700.079 524.589 732.05 517.724C743.338 515.137 753.075 511.148 761.453 505.657L761.458 505.654C779.727 493.98 792.381 476.999 805.496 459.398L806.158 458.511C819.494 440.618 833.4 422.186 854.222 408.347C855.828 407.201 857.66 406.213 859.543 405.199C860.5 404.683 861.47 404.16 862.43 403.606L862.441 403.6C903.09 381.451 976.934 369.47 1048.53 370.917C1063.8 371.147 1078.13 371.249 1090.4 370.069C1102.68 368.887 1112.84 366.427 1119.82 361.586C1148.77 341.266 1160.58 321.093 1170.33 300.82C1171.71 297.946 1173.05 295.068 1174.39 292.186C1182.52 274.728 1190.72 257.122 1208.52 239.339C1222.38 225.382 1239.34 217.249 1256.71 211.179C1260.05 209.996 1263.39 208.851 1266.72 207.712C1281.09 202.8 1295.19 197.979 1307.34 190.531Z" fill="white" fill-opacity="0.3"/>
<path fill-rule="evenodd" clip-rule="evenodd" d="M1295.88 257.479C1327.69 246.365 1358.34 235.659 1368.73 195.92L1369.7 196.173C1359.16 236.452 1327.99 247.333 1296.22 258.421C1292.91 259.577 1289.59 260.735 1286.28 261.93C1269.12 268.226 1252.5 276.192 1238.65 289.753C1221.21 306.915 1212.84 324.022 1204.52 341.044C1203.03 344.079 1201.55 347.11 1200.02 350.138C1189.88 370.167 1177.61 389.972 1148.42 409.297C1141.06 414.218 1130.54 416.448 1118.12 417.36C1105.88 418.258 1091.71 417.882 1076.73 417.483L1076.01 417.464L1076.01 417.464C1003.89 415.383 932.225 429.513 891.787 453.188L891.784 453.189C888.872 454.87 886.17 456.431 883.792 458.13L883.786 458.134C863.423 472.185 849.606 490.485 836.178 508.356L835.893 508.735C822.58 526.455 809.597 543.736 790.957 555.81C782.465 561.375 772.613 565.406 761.228 568.015L761.224 568.016C731.199 574.677 700.413 579.028 669.256 583.432C660.06 584.731 650.832 586.036 641.582 587.405L641.436 586.416C650.701 585.044 659.939 583.739 669.141 582.438C700.29 578.036 731.023 573.692 761.005 567.04C772.294 564.453 782.032 560.463 790.41 554.973L790.412 554.972C808.903 542.994 821.795 525.835 835.144 508.068L835.379 507.756C848.796 489.898 862.701 471.469 883.214 457.314C885.633 455.586 888.374 454.003 891.269 452.332L891.283 452.324C931.945 428.518 1003.82 414.381 1076.04 416.464L1076.72 416.483C1091.73 416.882 1105.86 417.257 1118.05 416.363C1130.43 415.453 1140.73 413.236 1147.87 408.465L1147.87 408.464C1176.86 389.267 1189.04 369.624 1199.13 349.687C1200.65 346.675 1202.13 343.655 1203.61 340.627C1211.93 323.599 1220.38 306.33 1237.95 289.039L1237.95 289.038C1251.95 275.332 1268.73 267.306 1285.94 260.99L1285.94 260.989C1289.25 259.793 1292.57 258.634 1295.88 257.479Z" fill="white" fill-opacity="0.3"/>
</g>
</svg>
