<svg width="818" height="520" viewBox="0 0 818 520" fill="none" xmlns="http://www.w3.org/2000/svg">
<mask id="mask0_455_98" style="mask-type:alpha" maskUnits="userSpaceOnUse" x="0" y="0" width="818" height="520">
<rect width="818" height="520" rx="100" fill="#E43D39"/>
</mask>
<g mask="url(#mask0_455_98)">
<rect x="2" y="2" width="814" height="516" rx="98" fill="#E43D39" stroke="#F44D49" stroke-width="4"/>
<path d="M732.675 -355.154C716.27 -291.869 663.613 -282.721 613.766 -265.248C588.994 -256.824 565.343 -245.883 546.284 -225.835C488.642 -163.613 513.984 -112.221 435.432 -34.31C419.14 -18.1205 383.318 -13.2662 340.616 -11.6755C247.707 -8.23023 129.916 -12.1254 74.487 7.21462C70.0996 8.84322 65.9621 10.3276 62.27 12.007C-0.426881 44.1352 -13.234 110.769 -64.6986 142.744C-75.9904 149.715 -89.2066 155.084 -105.38 157.639C-158.981 166.879 -213.312 174.28 -267.751 182.647" stroke="white" stroke-opacity="0.3" stroke-miterlimit="10"/>
<path d="M784.541 -265.319C768.19 -202.518 715.925 -192.692 666.131 -175.701C641.805 -167.083 617.709 -156.337 598.9 -136.433C541.365 -75.1778 565.209 -22.9211 486.144 51.2168C469.21 66.8722 433.442 71.2435 390.794 72.3509C297.048 74.9228 181.91 74.4704 126.515 95.5996C122.127 97.2282 117.99 98.7125 114.493 100.731C52.8295 134.072 38.9358 199.977 -12.5288 231.951C-24.0704 239.066 -37.286 244.435 -53.2632 247.329C-106.919 257.053 -161.25 264.454 -215.885 272.482" stroke="white" stroke-opacity="0.3" stroke-miterlimit="10"/>
<path d="M834.286 -179.158C817.988 -116.84 765.919 -106.675 716.571 -89.4893C692.245 -80.8711 668.594 -69.9299 649.589 -50.3652C592.163 9.92305 614.312 62.706 534.929 133.41C517.55 148.87 481.444 152.08 438.85 152.704C344.267 154.402 231.782 157.392 176.421 180.311C172.034 181.939 168.092 183.763 164.596 185.781C103.769 219.995 88.7882 285.171 37.5194 317.484C25.9778 324.6 12.7622 329.969 -3.21502 332.863C-56.9245 343.07 -111.451 350.131 -166.086 358.16" stroke="white" stroke-opacity="0.3" stroke-miterlimit="10"/>
<path d="M881.781 -96.8929C865.734 -34.7186 814.109 -24.3588 764.762 -7.17327C740.436 1.44487 717.035 12.242 698.03 31.8067C640.907 91.4674 661.112 144.921 581.465 211.707C563.694 226.489 527.197 229.02 484.853 229.5C389.433 230.325 279.601 236.757 224.274 261.465C220.083 263.433 216.141 265.256 212.645 267.275C152.655 302.362 136.783 367.148 85.5143 399.461C73.9727 406.577 60.507 412.09 44.7256 415.323C-8.788 425.869 -63.5105 432.592 -118.645 440.908" stroke="white" stroke-opacity="0.3" stroke-miterlimit="10"/>
<path d="M927.579 -17.5693C911.336 44.2658 860.353 55.1597 811.256 72.201C787.179 80.675 763.528 91.6166 744.772 111.037C687.561 169.392 706.269 223.71 626.304 287.062C608.088 301.649 571.448 303.358 528.962 303.015C432.705 302.967 325.581 312.359 269.788 339.144C265.597 341.111 261.655 342.935 258.159 344.954C199.202 381.253 182.243 445.31 130.725 477.768C118.933 485.028 105.913 490.736 89.936 493.629C36.1727 504.32 -18.3537 511.381 -73.4878 519.698" stroke="white" stroke-opacity="0.3" stroke-miterlimit="10"/>
<path d="M971.161 57.9169C955.167 119.608 904.185 130.502 855.532 147.738C831.456 156.212 808.25 167.349 789.299 186.43C732.392 244.157 748.959 298.806 668.926 358.58C650.068 372.633 613.287 373.519 571.051 373.032C473.956 372.111 369.486 384.944 313.727 413.519C309.536 415.487 305.79 417.649 302.294 419.668C244.424 456.697 226.129 520.168 174.806 552.965C163.211 560.564 149.995 565.933 134.213 569.166C80.6459 580.196 25.6731 587.063 -29.461 595.379" stroke="white" stroke-opacity="0.3" stroke-miterlimit="10"/>
<path d="M1012.5 129.512C996.556 190.719 946.215 202.148 897.563 219.384C873.736 227.714 850.531 238.85 831.58 257.931C774.78 314.692 789.404 370.011 709.552 426.062C690.053 439.581 653.129 439.645 611.143 439.014C512.766 437.024 411.394 453.495 355.67 483.859C351.674 486.166 347.732 487.989 344.432 490.347C287.4 528.249 268.213 591.331 216.89 624.128C205.295 631.727 191.83 637.24 176.244 640.812C122.623 652.325 67.6501 659.192 12.3203 667.169" stroke="white" stroke-opacity="0.3" stroke-miterlimit="10"/>
<path d="M1052 197.934C1036.11 258.658 985.968 270.425 937.761 287.857C914.131 296.525 891.175 307.518 872.028 326.26C815.337 382.054 828.07 437.56 748.097 490.516C728.152 503.84 690.891 502.742 648.958 501.628C549.743 498.765 451.079 518.195 395.335 550.831C391.34 553.138 387.594 555.3 384.293 557.658C328.098 596.433 308.075 658.642 256.698 691.922C245.103 699.521 231.637 705.034 216.051 708.606C162.625 720.458 107.457 726.986 51.6279 735.251" stroke="white" stroke-opacity="0.3" stroke-miterlimit="10"/>
</g>
</svg>
