<svg width="88" height="88" viewBox="0 0 88 88" fill="none" xmlns="http://www.w3.org/2000/svg">
<g filter="url(#filter0_d_30_2909)">
<path d="M43.9997 77.0002C39.3685 73.0498 35.0757 68.7191 31.1663 64.0532C25.2997 57.0462 18.333 46.6108 18.333 36.6668C18.3305 31.5884 19.8345 26.6233 22.6549 22.3999C25.4752 18.1766 29.4851 14.8849 34.1769 12.9413C38.8688 10.9977 44.0318 10.4897 49.0124 11.4816C53.9931 12.4734 58.5676 14.9205 62.157 18.5132C64.5468 20.8923 66.441 23.7218 67.7299 26.8379C69.0189 29.9539 69.6771 33.2947 69.6663 36.6668C69.6663 46.6108 62.6997 57.0462 56.833 64.0532C52.9236 68.719 48.6309 73.0498 43.9997 77.0002Z" fill="#E43D39"/>
</g>
<path d="M51.1092 25.2798L63 36.9849C62.1135 37.8575 61.6245 38.4292 60.4934 38.4292C59.5886 38.4292 58.8734 37.9477 58.6288 37.707L54.0437 33.1935C51.9039 31.0872 49.9476 30.0942 48.2969 29.342C46.6463 28.5897 43.4061 28.2587 42.8865 28.2587C42.3668 28.2587 39.5852 28.349 39.5852 28.7703C39.5852 29.1915 41.0524 29.1915 42.4279 29.342C43.8035 29.4924 44.4148 29.4924 45.6681 30.2748C46.6707 30.9006 47.1048 32.2206 47.1965 32.8023H32.6463C31.3624 32.8023 30.6594 31.6288 30.6594 30.7562C30.6594 30.0581 31.067 29.4824 31.2707 29.2818L35.3362 25.2798C36.294 24.1865 39.2 22 43.1616 22C47.1231 22 50.1106 24.1865 51.1092 25.2798Z" fill="white"/>
<path d="M55.4498 35.7812L59.8515 40.1142C59.2504 41.047 57.2838 42.1603 55.5415 40.4452C53.5546 38.4894 54.441 36.7742 55.4498 35.7812Z" fill="white"/>
<path d="M28 37.1353C28 35.6188 28.3261 34.2567 28.4891 33.7652C30.8734 33.7652 31.3624 34.698 31.3624 36.8645C31.3624 39.031 31.9127 39.8735 33.0742 41.4984C34.2358 43.1232 36.6812 44.0861 38.0873 44.3268C39.4935 44.5675 41.3581 44.8684 41.4803 43.2436C41.5782 41.9437 40.3188 41.5987 39.6769 41.5886C39.1572 41.5886 37.9528 41.5706 37.2926 41.4984C36.4672 41.4081 34.8166 41.0169 33.7773 40.054C32.738 39.0912 32.5546 38.0681 32.5546 37.7672C32.5546 37.4663 32.6463 34.6378 35.4891 34.6378C37.7633 34.6378 38.393 36.7241 38.4236 37.7672H43.8646C44.1092 37.7672 44.8734 37.8876 45.6987 38.2486C46.359 38.5375 47.1557 39.2115 47.4716 39.5124L53.952 45.8915L51.048 48.7501C47.7773 51.9697 43.9869 51.9998 43.1616 51.9998C42.3362 51.9998 41.6943 52.0299 39.4629 51.3679C38.0873 50.9598 35.968 49.402 35.3362 48.7501L31.179 44.6578C30.3231 43.8153 29.6201 42.7922 29.0087 41.5886C28.3974 40.385 28 39.031 28 37.1353Z" fill="white"/>
<path d="M53.0655 39.2416L56.8865 43.0029C56.3668 43.5144 55.6332 44.2967 54.5022 44.2967C53.5974 44.2967 52.8821 43.7752 52.6376 43.5144L48.5721 39.5124C48.3071 39.2617 47.7773 38.5134 47.7773 37.5265C47.7773 36.2928 48.6638 34.6679 50.7118 34.6679C52.7598 34.6679 53.6157 36.4432 53.6157 37.5265C53.6157 38.3931 53.2489 39.031 53.0655 39.2416Z" fill="white"/>
<defs>
<filter id="filter0_d_30_2909" x="14.333" y="10.9873" width="59.333" height="74.0127" filterUnits="userSpaceOnUse" color-interpolation-filters="sRGB">
<feFlood flood-opacity="0" result="BackgroundImageFix"/>
<feColorMatrix in="SourceAlpha" type="matrix" values="0 0 0 0 0 0 0 0 0 0 0 0 0 0 0 0 0 0 127 0" result="hardAlpha"/>
<feOffset dy="4"/>
<feGaussianBlur stdDeviation="2"/>
<feComposite in2="hardAlpha" operator="out"/>
<feColorMatrix type="matrix" values="0 0 0 0 0 0 0 0 0 0 0 0 0 0 0 0 0 0 0.25 0"/>
<feBlend mode="normal" in2="BackgroundImageFix" result="effect1_dropShadow_30_2909"/>
<feBlend mode="normal" in="SourceGraphic" in2="effect1_dropShadow_30_2909" result="shape"/>
</filter>
</defs>
</svg>
