<svg width="251" height="36" viewBox="0 0 251 36" fill="none" xmlns="http://www.w3.org/2000/svg">
<path d="M73.7742 22.8857V29.5457H70.6885V25.7143H56.4942L56.4685 29.5457H53.3828L53.4085 22.8857H55.5942V15.5057C55.5942 13.7914 55.92 12.3343 56.5714 11.1343C57.24 9.93429 58.1742 9.02572 59.3742 8.40857C60.5742 7.77429 61.9714 7.45715 63.5657 7.45715C65.1771 7.45715 66.5828 7.76572 67.7828 8.38286C68.9828 9 69.9085 9.91715 70.56 11.1343C71.2285 12.3343 71.5628 13.7914 71.5628 15.5057V22.8857H73.7742ZM68.22 22.8857V15.1971C68.22 13.62 67.8085 12.4286 66.9857 11.6229C66.1628 10.8 65.0228 10.3886 63.5657 10.3886C62.1085 10.3886 60.9685 10.8 60.1457 11.6229C59.34 12.4286 58.9371 13.62 58.9371 15.1971V22.8857H68.22Z" fill="#2A3246"/>
<path d="M82.0759 25.8943C80.6874 25.8943 79.4359 25.5943 78.3217 24.9943C77.2074 24.3943 76.3331 23.5629 75.6988 22.5C75.0817 21.42 74.7731 20.2029 74.7731 18.8486C74.7731 17.4943 75.0817 16.2857 75.6988 15.2229C76.3331 14.16 77.2074 13.3286 78.3217 12.7286C79.4359 12.1286 80.6874 11.8286 82.0759 11.8286C83.4817 11.8286 84.7417 12.1286 85.8559 12.7286C86.9702 13.3286 87.8359 14.16 88.4531 15.2229C89.0874 16.2857 89.4045 17.4943 89.4045 18.8486C89.4045 20.2029 89.0874 21.42 88.4531 22.5C87.8359 23.5629 86.9702 24.3943 85.8559 24.9943C84.7417 25.5943 83.4817 25.8943 82.0759 25.8943ZM82.0759 23.1429C83.2588 23.1429 84.2359 22.7486 85.0074 21.96C85.7788 21.1714 86.1645 20.1343 86.1645 18.8486C86.1645 17.5629 85.7788 16.5257 85.0074 15.7371C84.2359 14.9486 83.2588 14.5543 82.0759 14.5543C80.8931 14.5543 79.9159 14.9486 79.1445 15.7371C78.3902 16.5257 78.0131 17.5629 78.0131 18.8486C78.0131 20.1343 78.3902 21.1714 79.1445 21.96C79.9159 22.7486 80.8931 23.1429 82.0759 23.1429Z" fill="#2A3246"/>
<path d="M102.017 18.5657C103.714 19.08 104.563 20.1771 104.563 21.8571C104.563 23.0914 104.1 24.0429 103.174 24.7114C102.248 25.38 100.877 25.7143 99.0598 25.7143H92.0655V11.9829H98.777C100.457 11.9829 101.768 12.2914 102.711 12.9086C103.654 13.5257 104.126 14.4 104.126 15.5314C104.126 16.2343 103.937 16.8429 103.56 17.3571C103.2 17.8714 102.686 18.2743 102.017 18.5657ZM95.1255 17.7171H98.4941C100.157 17.7171 100.988 17.1429 100.988 15.9943C100.988 14.88 100.157 14.3229 98.4941 14.3229H95.1255V17.7171ZM98.8027 23.3743C100.568 23.3743 101.451 22.8 101.451 21.6514C101.451 21.0514 101.246 20.6057 100.834 20.3143C100.423 20.0057 99.7798 19.8514 98.9055 19.8514H95.1255V23.3743H98.8027Z" fill="#2A3246"/>
<path d="M113.952 23.1686C115.443 23.1686 116.686 22.6714 117.681 21.6771L119.378 23.6571C118.778 24.3943 118.006 24.9514 117.063 25.3286C116.121 25.7057 115.058 25.8943 113.875 25.8943C112.366 25.8943 111.038 25.5943 109.889 24.9943C108.741 24.3943 107.849 23.5629 107.215 22.5C106.598 21.42 106.289 20.2029 106.289 18.8486C106.289 17.5114 106.589 16.3114 107.189 15.2486C107.806 14.1686 108.646 13.3286 109.709 12.7286C110.789 12.1286 112.006 11.8286 113.361 11.8286C114.646 11.8286 115.812 12.1114 116.858 12.6771C117.921 13.2257 118.761 14.0229 119.378 15.0686C119.995 16.0971 120.303 17.3057 120.303 18.6943L109.786 20.7514C110.112 21.54 110.635 22.14 111.355 22.5514C112.075 22.9629 112.941 23.1686 113.952 23.1686ZM113.361 14.4C112.178 14.4 111.218 14.7857 110.481 15.5571C109.761 16.3286 109.401 17.3657 109.401 18.6686V18.6943L117.166 17.2029C116.943 16.3629 116.489 15.6857 115.803 15.1714C115.135 14.6571 114.321 14.4 113.361 14.4Z" fill="#2A3246"/>
<path d="M129.717 11.8286C131.14 11.8286 132.383 12.12 133.446 12.7029C134.526 13.2857 135.357 14.1086 135.94 15.1714C136.54 16.2343 136.84 17.4686 136.84 18.8743C136.84 20.2629 136.557 21.4886 135.992 22.5514C135.426 23.6143 134.629 24.4371 133.6 25.02C132.589 25.6029 131.414 25.8943 130.077 25.8943C128.174 25.8943 126.683 25.2857 125.603 24.0686V30.7029H122.363V18.9C122.363 17.5114 122.672 16.2857 123.289 15.2229C123.906 14.1429 124.763 13.3114 125.86 12.7286C126.974 12.1286 128.26 11.8286 129.717 11.8286ZM129.589 23.1686C130.789 23.1686 131.766 22.7743 132.52 21.9857C133.274 21.18 133.652 20.1429 133.652 18.8743C133.652 17.6057 133.274 16.5686 132.52 15.7629C131.766 14.9571 130.789 14.5543 129.589 14.5543C128.372 14.5543 127.394 14.9486 126.657 15.7371C125.92 16.5257 125.552 17.5629 125.552 18.8486C125.552 20.1343 125.92 21.18 126.657 21.9857C127.412 22.7743 128.389 23.1686 129.589 23.1686Z" fill="#2A3246"/>
<path d="M152.552 11.9829V25.7143H149.492V23.9657C148.978 24.5829 148.335 25.0629 147.563 25.4057C146.809 25.7314 145.986 25.8943 145.095 25.8943C143.261 25.8943 141.812 25.3886 140.749 24.3771C139.686 23.3486 139.155 21.8314 139.155 19.8257V11.9829H142.369V19.3886C142.369 20.6229 142.643 21.5486 143.192 22.1657C143.758 22.7657 144.563 23.0657 145.609 23.0657C146.741 23.0657 147.641 22.7143 148.309 22.0114C148.995 21.2914 149.338 20.2629 149.338 18.9257V11.9829H152.552Z" fill="#2A3246"/>
<path d="M162.858 23.1686C164.35 23.1686 165.593 22.6714 166.587 21.6771L168.284 23.6571C167.684 24.3943 166.913 24.9514 165.97 25.3286C165.027 25.7057 163.964 25.8943 162.781 25.8943C161.273 25.8943 159.944 25.5943 158.796 24.9943C157.647 24.3943 156.756 23.5629 156.121 22.5C155.504 21.42 155.196 20.2029 155.196 18.8486C155.196 17.5114 155.496 16.3114 156.096 15.2486C156.713 14.1686 157.553 13.3286 158.616 12.7286C159.696 12.1286 160.913 11.8286 162.267 11.8286C163.553 11.8286 164.718 12.1114 165.764 12.6771C166.827 13.2257 167.667 14.0229 168.284 15.0686C168.901 16.0971 169.21 17.3057 169.21 18.6943L158.693 20.7514C159.018 21.54 159.541 22.14 160.261 22.5514C160.981 22.9629 161.847 23.1686 162.858 23.1686ZM162.267 14.4C161.084 14.4 160.124 14.7857 159.387 15.5571C158.667 16.3286 158.307 17.3657 158.307 18.6686V18.6943L166.073 17.2029C165.85 16.3629 165.396 15.6857 164.71 15.1714C164.041 14.6571 163.227 14.4 162.267 14.4Z" fill="#2A3246"/>
<path d="M191.799 11.9829V25.7143H188.739V23.94C188.207 24.5914 187.547 25.08 186.759 25.4057C185.987 25.7314 185.13 25.8943 184.187 25.8943C182.85 25.8943 181.65 25.6029 180.587 25.02C179.542 24.4371 178.719 23.6143 178.119 22.5514C177.536 21.4886 177.245 20.2543 177.245 18.8486C177.245 17.4429 177.536 16.2171 178.119 15.1714C178.719 14.1086 179.542 13.2857 180.587 12.7029C181.65 12.12 182.85 11.8286 184.187 11.8286C185.079 11.8286 185.893 11.9829 186.63 12.2914C187.385 12.6 188.036 13.0543 188.585 13.6543V11.9829H191.799ZM184.547 23.1429C185.73 23.1429 186.707 22.7486 187.479 21.96C188.25 21.1714 188.636 20.1343 188.636 18.8486C188.636 17.5629 188.25 16.5257 187.479 15.7371C186.707 14.9486 185.73 14.5543 184.547 14.5543C183.365 14.5543 182.387 14.9486 181.616 15.7371C180.862 16.5257 180.485 17.5629 180.485 18.8486C180.485 20.1343 180.862 21.1714 181.616 21.96C182.387 22.7486 183.365 23.1429 184.547 23.1429Z" fill="#2A3246"/>
<path d="M205.493 18.5657C207.19 19.08 208.039 20.1771 208.039 21.8571C208.039 23.0914 207.576 24.0429 206.65 24.7114C205.724 25.38 204.353 25.7143 202.536 25.7143H195.541V11.9829H202.253C203.933 11.9829 205.244 12.2914 206.187 12.9086C207.13 13.5257 207.601 14.4 207.601 15.5314C207.601 16.2343 207.413 16.8429 207.036 17.3571C206.676 17.8714 206.161 18.2743 205.493 18.5657ZM198.601 17.7171H201.97C203.633 17.7171 204.464 17.1429 204.464 15.9943C204.464 14.88 203.633 14.3229 201.97 14.3229H198.601V17.7171ZM202.279 23.3743C204.044 23.3743 204.927 22.8 204.927 21.6514C204.927 21.0514 204.721 20.6057 204.31 20.3143C203.899 20.0057 203.256 19.8514 202.381 19.8514H198.601V23.3743H202.279Z" fill="#2A3246"/>
<path d="M228.279 11.8286C230.011 11.8286 231.382 12.3343 232.394 13.3457C233.405 14.34 233.911 15.84 233.911 17.8457V25.7143H230.696V18.2571C230.696 17.0571 230.431 16.1571 229.899 15.5571C229.368 14.94 228.605 14.6314 227.611 14.6314C226.531 14.6314 225.665 14.9914 225.014 15.7114C224.362 16.4143 224.036 17.4257 224.036 18.7457V25.7143H220.822V18.2571C220.822 17.0571 220.556 16.1571 220.025 15.5571C219.494 14.94 218.731 14.6314 217.736 14.6314C216.639 14.6314 215.765 14.9829 215.114 15.6857C214.479 16.3886 214.162 17.4086 214.162 18.7457V25.7143H210.948V11.9829H214.008V13.7314C214.522 13.1143 215.165 12.6429 215.936 12.3171C216.708 11.9914 217.565 11.8286 218.508 11.8286C219.536 11.8286 220.445 12.0257 221.234 12.42C222.039 12.7971 222.674 13.3629 223.136 14.1171C223.702 13.3971 224.431 12.84 225.322 12.4457C226.214 12.0343 227.199 11.8286 228.279 11.8286Z" fill="#2A3246"/>
<path d="M243.473 25.8943C242.085 25.8943 240.833 25.5943 239.719 24.9943C238.605 24.3943 237.73 23.5629 237.096 22.5C236.479 21.42 236.17 20.2029 236.17 18.8486C236.17 17.4943 236.479 16.2857 237.096 15.2229C237.73 14.16 238.605 13.3286 239.719 12.7286C240.833 12.1286 242.085 11.8286 243.473 11.8286C244.879 11.8286 246.139 12.1286 247.253 12.7286C248.368 13.3286 249.233 14.16 249.85 15.2229C250.485 16.2857 250.802 17.4943 250.802 18.8486C250.802 20.2029 250.485 21.42 249.85 22.5C249.233 23.5629 248.368 24.3943 247.253 24.9943C246.139 25.5943 244.879 25.8943 243.473 25.8943ZM243.473 23.1429C244.656 23.1429 245.633 22.7486 246.405 21.96C247.176 21.1714 247.562 20.1343 247.562 18.8486C247.562 17.5629 247.176 16.5257 246.405 15.7371C245.633 14.9486 244.656 14.5543 243.473 14.5543C242.29 14.5543 241.313 14.9486 240.542 15.7371C239.788 16.5257 239.41 17.5629 239.41 18.8486C239.41 20.1343 239.788 21.1714 240.542 21.96C241.313 22.7486 242.29 23.1429 243.473 23.1429Z" fill="#2A3246"/>
<path d="M27.1648 3.93578L41.1426 17.9818C40.1005 19.029 39.5256 19.715 38.1961 19.715C37.1325 19.715 36.2917 19.1373 36.0042 18.8484L30.6143 13.4322C28.099 10.9046 25.7993 9.71307 23.859 8.81037C21.9186 7.90767 18.1098 7.51048 17.4989 7.51048C16.8881 7.51048 13.6182 7.6188 13.6182 8.12432C13.6182 8.62983 15.343 8.62983 16.9599 8.81037C18.5769 8.99091 19.2955 8.99091 20.7688 9.92972C21.9474 10.6808 22.4576 12.2647 22.5654 12.9628H5.46148C3.95231 12.9628 3.12586 11.5546 3.12586 10.5075C3.12586 9.66974 3.60496 8.97888 3.84451 8.73815L8.62355 3.93578C9.74944 2.62385 13.1654 0 17.8223 0C22.4792 0 25.991 2.62385 27.1648 3.93578Z" fill="#E43D39"/>
<path d="M32.2672 16.5375L37.4415 21.7371C36.7348 22.8564 34.4232 24.1924 32.375 22.1343C30.0394 19.7872 31.0814 17.7291 32.2672 16.5375Z" fill="#E43D39"/>
<path d="M-0.000278473 18.1624C-0.000278473 16.3425 0.383003 14.708 0.574642 14.1183C3.37739 14.1183 3.95231 15.2376 3.95231 17.8374C3.95231 20.4372 4.59909 21.4482 5.96454 23.398C7.32998 25.3479 10.2046 26.5033 11.8575 26.7922C13.5104 27.0811 15.7023 27.4421 15.846 25.4923C15.961 23.9324 14.4806 23.5184 13.726 23.5064C13.1151 23.5064 11.6994 23.4847 10.9232 23.398C9.95306 23.2897 8.0127 22.8203 6.79099 21.6648C5.56928 20.5094 5.35368 19.2817 5.35368 18.9206C5.35368 18.5596 5.46148 15.1654 8.80322 15.1654C11.4766 15.1654 12.2168 17.6689 12.2527 18.9206H18.6488C18.9362 18.9206 19.8345 19.0651 20.8047 19.4984C21.5809 19.845 22.5175 20.6538 22.8888 21.0149L30.5065 28.6698L27.0929 32.1001C23.2481 35.9636 18.7925 35.9998 17.8223 35.9998C16.8521 35.9998 16.0975 36.0359 13.4745 35.2415C11.8575 34.7518 9.36616 32.8824 8.62355 32.1001L3.73671 27.1894C2.7306 26.1784 1.90415 24.9507 1.1855 23.5064C0.466843 22.062 -0.000278473 20.4372 -0.000278473 18.1624Z" fill="#E43D39"/>
<path d="M29.4645 20.6899L33.9561 25.2034C33.3452 25.8173 32.4828 26.7561 31.1533 26.7561C30.0897 26.7561 29.2489 26.1302 28.9614 25.8173L24.1824 21.0149C23.871 20.714 23.2481 19.8161 23.2481 18.6318C23.2481 17.1513 24.2902 15.2015 26.6977 15.2015C29.1051 15.2015 30.1113 17.3319 30.1113 18.6318C30.1113 19.6717 29.6801 20.4372 29.4645 20.6899Z" fill="#E43D39"/>
</svg>
