<svg width="450" height="184" viewBox="0 0 450 184" fill="none" xmlns="http://www.w3.org/2000/svg">
<path d="M0 100C0 44.7715 44.7715 0 100 0H450V184H0V100Z" fill="#E43D39"/>
<mask id="mask0_417_90" style="mask-type:alpha" maskUnits="userSpaceOnUse" x="0" y="0" width="450" height="184">
<path d="M0 100C0 44.7715 44.7715 0 100 0H450V184H0V100Z" fill="#E43D39"/>
</mask>
<g mask="url(#mask0_417_90)">
<path d="M402.55 -208.238C394.786 -184.019 369.865 -180.519 346.275 -173.832C334.551 -170.609 323.358 -166.421 314.339 -158.749C287.059 -134.938 299.052 -115.272 261.877 -85.4565C254.167 -79.2611 237.214 -77.4034 217.005 -76.7947C173.035 -75.4762 117.289 -76.9668 91.057 -69.5658C88.9807 -68.9425 87.0225 -68.3745 85.2752 -67.7318C55.6035 -55.437 49.5424 -29.9373 25.1864 -17.7013C19.8424 -15.0334 13.5878 -12.9788 5.93379 -12.0013C-19.4336 -8.46507 -45.1462 -5.63288 -70.9097 -2.43086" stroke="white" stroke-opacity="0.3" stroke-miterlimit="10"/>
<path d="M427.094 -173.86C419.356 -149.826 394.621 -146.066 371.056 -139.564C359.544 -136.266 348.14 -132.154 339.238 -124.537C312.009 -101.096 323.294 -81.0982 285.876 -52.727C277.862 -46.736 260.934 -45.0632 240.751 -44.6394C196.385 -43.6552 141.894 -43.8283 115.678 -35.7425C113.602 -35.1193 111.644 -34.5513 109.989 -33.7788C80.8063 -21.02 74.231 4.2006 49.875 16.4365C44.4128 19.1596 38.1584 21.2142 30.5971 22.3215C5.20418 26.0427 -20.5086 28.8749 -46.3648 31.9471" stroke="white" stroke-opacity="0.3" stroke-miterlimit="10"/>
<path d="M450.636 -140.887C442.923 -117.039 418.281 -113.149 394.927 -106.573C383.414 -103.275 372.222 -99.0876 363.227 -91.6005C336.05 -68.5293 346.532 -48.3303 308.963 -21.2733C300.739 -15.3569 283.651 -14.1286 263.493 -13.8898C218.731 -13.2398 165.497 -12.0956 139.297 -3.32515C137.22 -2.70192 135.355 -2.00413 133.7 -1.23167C104.914 11.8614 97.8238 36.803 73.5605 49.1687C68.0984 51.8918 61.8439 53.9464 54.2826 55.0537C28.8642 58.9598 3.05892 61.6622 -22.7973 64.7344" stroke="white" stroke-opacity="0.3" stroke-miterlimit="10"/>
<path d="M473.116 -109.406C465.521 -85.6128 441.09 -81.6483 417.736 -75.0717C406.223 -71.7737 395.149 -67.6419 386.154 -60.1548C359.12 -37.3238 368.683 -16.8682 330.989 8.68962C322.579 14.3464 305.306 15.3151 285.267 15.4987C240.108 15.8145 188.13 18.276 161.946 27.7311C159.962 28.4841 158.096 29.182 156.442 29.9544C128.051 43.3817 120.54 68.1741 96.2764 80.5398C90.8142 83.2629 84.4415 85.3727 76.9728 86.6098C51.6471 90.6457 25.7493 93.2183 -0.343362 96.4009" stroke="white" stroke-opacity="0.3" stroke-miterlimit="10"/>
<path d="M494.79 -79.0503C487.102 -55.3871 462.974 -51.2183 439.738 -44.6969C428.344 -41.454 417.151 -37.2669 408.275 -29.835C381.199 -7.50366 390.053 13.2828 352.209 37.5265C343.588 43.1087 326.248 43.7626 306.141 43.6315C260.586 43.6131 209.889 47.207 183.485 57.4572C181.501 58.2102 179.636 58.908 177.981 59.6805C150.079 73.5717 142.054 98.0851 117.672 110.506C112.092 113.284 105.93 115.469 98.3684 116.576C72.9245 120.667 47.1195 123.369 21.0269 126.552" stroke="white" stroke-opacity="0.3" stroke-miterlimit="10"/>
<path d="M515.416 -50.1629C507.846 -26.5549 483.719 -22.386 460.694 -15.79C449.299 -12.5472 438.317 -8.28541 429.348 -0.983341C402.416 21.1078 410.257 42.021 372.381 64.8953C363.456 70.2731 346.049 70.6122 326.061 70.4259C280.11 70.0734 230.668 74.9845 204.28 85.9194C202.297 86.6724 200.524 87.5001 198.869 88.2726C171.482 102.443 162.824 126.732 138.535 139.283C133.047 142.191 126.792 144.246 119.324 145.483C93.9726 149.704 67.9563 152.331 41.8637 155.514" stroke="white" stroke-opacity="0.3" stroke-miterlimit="10"/>
<path d="M534.975 -22.765C527.432 0.657986 503.607 5.03133 480.582 11.6273C469.306 14.815 458.324 19.0767 449.355 26.3788C422.474 48.1 429.395 69.2696 391.605 90.7193C382.377 95.8927 364.902 95.9172 345.032 95.6757C298.474 94.9144 250.499 101.217 224.127 112.837C222.236 113.72 220.371 114.418 218.809 115.32C191.818 129.824 182.738 153.965 158.449 166.515C152.961 169.423 146.588 171.533 139.212 172.9C113.836 177.306 87.8196 179.934 61.6343 182.986" stroke="white" stroke-opacity="0.3" stroke-miterlimit="10"/>
<path d="M553.672 3.41876C546.153 26.6568 522.422 31.1599 499.607 37.8306C488.424 41.148 477.56 45.3545 468.499 52.5268C441.669 73.8782 447.695 95.1192 409.847 115.385C400.408 120.483 382.774 120.063 362.929 119.637C315.975 118.541 269.281 125.977 242.9 138.466C241.009 139.349 239.236 140.176 237.674 141.079C211.079 155.917 201.603 179.723 177.289 192.459C171.801 195.367 165.428 197.477 158.052 198.844C132.768 203.379 106.659 205.877 80.2378 209.04" stroke="white" stroke-opacity="0.3" stroke-miterlimit="10"/>
</g>
</svg>
