<svg width="950" height="358" viewBox="0 0 950 358" fill="none" xmlns="http://www.w3.org/2000/svg">
<path d="M0 217.5C0 97.3781 97.3781 0 217.5 0H950V358H0V217.5Z" fill="#E43D39"/>
<mask id="mask0_406_92" style="mask-type:alpha" maskUnits="userSpaceOnUse" x="0" y="0" width="950" height="358">
<path d="M0 217.5C0 97.3781 97.3781 0 217.5 0H950V358H0V217.5Z" fill="#E43D39"/>
</mask>
<g mask="url(#mask0_406_92)">
<path d="M849.675 -544.154C833.27 -480.868 780.613 -471.721 730.766 -454.247C705.994 -445.824 682.343 -434.883 663.284 -414.835C605.642 -352.613 630.984 -301.221 552.432 -223.31C536.14 -207.12 500.318 -202.266 457.616 -200.675C364.707 -197.23 246.916 -201.125 191.487 -181.785C187.1 -180.157 182.962 -178.672 179.27 -176.993C116.573 -144.865 103.766 -78.2303 52.3014 -46.2561C41.0096 -39.2846 27.7934 -33.9154 11.6204 -31.3611C-41.9812 -22.1205 -96.3122 -14.7196 -150.751 -6.35226" stroke="white" stroke-opacity="0.3" stroke-miterlimit="10"/>
<path d="M901.541 -454.319C885.19 -391.517 832.925 -381.692 783.131 -364.701C758.805 -356.083 734.709 -345.336 715.9 -325.433C658.365 -264.178 682.209 -211.921 603.144 -137.783C586.21 -122.128 550.442 -117.756 507.794 -116.649C414.048 -114.077 298.91 -114.529 243.515 -93.4003C239.127 -91.7717 234.99 -90.2873 231.493 -88.2688C169.83 -54.9282 155.936 10.9767 104.471 42.9509C92.9296 50.0666 79.714 55.4357 63.7368 58.3291C10.0813 68.0531 -44.2502 75.4539 -98.8848 83.4821" stroke="white" stroke-opacity="0.3" stroke-miterlimit="10"/>
<path d="M951.286 -368.158C934.988 -305.839 882.919 -295.675 833.571 -278.489C809.245 -269.871 785.594 -258.93 766.589 -239.365C709.163 -179.077 731.312 -126.294 651.929 -55.59C634.55 -40.1297 598.444 -36.9202 555.85 -36.2961C461.267 -34.5975 348.782 -31.6076 293.421 -8.68916C289.034 -7.06056 285.092 -5.23715 281.596 -3.21859C220.769 30.9953 205.788 96.1713 154.519 128.485C142.978 135.6 129.762 140.969 113.785 143.863C60.0755 154.07 5.54861 161.132 -49.086 169.16" stroke="white" stroke-opacity="0.3" stroke-miterlimit="10"/>
<path d="M998.781 -285.893C982.734 -223.718 931.109 -213.358 881.762 -196.173C857.436 -187.555 834.035 -176.758 815.03 -157.193C757.907 -97.5323 778.112 -44.0792 698.465 22.707C680.694 37.4891 644.197 40.0202 601.853 40.5001C506.433 41.3254 396.601 47.7575 341.274 72.4651C337.083 74.4329 333.141 76.2564 329.645 78.275C269.655 113.362 253.783 178.148 202.514 210.462C190.973 217.577 177.507 223.091 161.726 226.323C108.212 236.87 53.4895 243.592 -1.64456 251.909" stroke="white" stroke-opacity="0.3" stroke-miterlimit="10"/>
<path d="M1044.58 -206.57C1028.34 -144.734 977.353 -133.841 928.256 -116.799C904.179 -108.325 880.528 -97.3836 861.772 -77.9631C804.561 -19.6082 823.269 34.7098 743.304 98.0619C725.088 112.649 688.448 114.358 645.962 114.015C549.705 113.967 442.581 123.358 386.788 150.143C382.597 152.111 378.655 153.935 375.159 155.953C316.202 192.253 299.243 256.31 247.725 288.767C235.933 296.027 222.913 301.736 206.936 304.629C153.173 315.32 98.6463 322.381 43.5122 330.698" stroke="white" stroke-opacity="0.3" stroke-miterlimit="10"/>
<path d="M1088.16 -131.083C1072.17 -69.3918 1021.19 -58.4978 972.533 -41.2615C948.457 -32.7875 925.251 -21.651 906.3 -2.56968C849.393 55.1577 865.96 109.807 785.927 169.58C767.069 183.633 730.288 184.519 688.052 184.033C590.957 183.111 486.487 195.945 430.728 224.519C426.537 226.487 422.791 228.65 419.295 230.668C361.425 267.697 343.13 331.169 291.807 363.965C280.212 371.565 266.996 376.934 251.214 380.166C197.647 391.196 142.674 398.063 87.54 406.38" stroke="white" stroke-opacity="0.3" stroke-miterlimit="10"/>
<path d="M1129.5 -59.4883C1113.56 1.71935 1063.21 13.1475 1014.56 30.3838C990.735 38.7136 967.53 49.85 948.579 68.9313C891.779 125.692 906.403 181.011 826.551 237.062C807.052 250.581 770.129 250.645 728.142 250.014C629.765 248.024 528.393 264.495 472.669 294.859C468.673 297.166 464.732 298.989 461.431 301.347C404.399 339.249 385.212 402.331 333.889 435.128C322.294 442.727 308.829 448.24 293.243 451.812C239.622 463.325 184.649 470.191 129.319 478.169" stroke="white" stroke-opacity="0.3" stroke-miterlimit="10"/>
<path d="M1169 8.93355C1153.11 69.6578 1102.97 81.4251 1054.76 98.8564C1031.13 107.525 1008.18 118.518 989.028 137.26C932.337 193.054 945.07 248.56 865.097 301.516C845.152 314.839 807.891 313.742 765.958 312.627C666.743 309.765 568.079 329.194 512.335 361.831C508.34 364.137 504.594 366.3 501.293 368.658C445.098 407.433 425.075 469.642 373.698 502.922C362.103 510.521 348.637 516.034 333.051 519.606C279.625 531.458 224.457 537.986 168.628 546.251" stroke="white" stroke-opacity="0.3" stroke-miterlimit="10"/>
</g>
</svg>
