<svg width="30" height="30" viewBox="0 0 30 30" fill="none" xmlns="http://www.w3.org/2000/svg">
<path d="M23.125 4.375L25.625 6.875L6.875 25.625L4.375 23.125L23.125 4.375ZM8.75 5C10.825 5 12.5 6.675 12.5 8.75C12.5 10.825 10.825 12.5 8.75 12.5C6.675 12.5 5 10.825 5 8.75C5 6.675 6.675 5 8.75 5ZM21.25 17.5C23.325 17.5 25 19.175 25 21.25C25 23.325 23.325 25 21.25 25C19.175 25 17.5 23.325 17.5 21.25C17.5 19.175 19.175 17.5 21.25 17.5ZM8.75 7.5C8.0625 7.5 7.5 8.0625 7.5 8.75C7.5 9.4375 8.0625 10 8.75 10C9.4375 10 10 9.4375 10 8.75C10 8.0625 9.4375 7.5 8.75 7.5ZM21.25 20C20.5625 20 20 20.5625 20 21.25C20 21.9375 20.5625 22.5 21.25 22.5C21.9375 22.5 22.5 21.9375 22.5 21.25C22.5 20.5625 21.9375 20 21.25 20Z" fill="#E43D39"/>
</svg>
