<svg width="886" height="168" viewBox="0 0 886 168" fill="none" xmlns="http://www.w3.org/2000/svg">
<mask id="mask0_467_124" style="mask-type:alpha" maskUnits="userSpaceOnUse" x="0" y="0" width="886" height="168">
<rect x="884" y="166" width="882" height="164" transform="rotate(-180 884 166)" fill="#E43D39" stroke="#F44D49" stroke-width="4"/>
</mask>
<g mask="url(#mask0_467_124)">
<path d="M-273.787 497.323C-261.853 451.287 -223.549 444.633 -187.288 431.922C-169.268 425.795 -152.064 417.835 -138.199 403.252C-96.2682 357.989 -114.703 320.605 -57.5617 263.93C-45.7102 252.153 -19.6519 248.622 11.4107 247.465C78.9959 244.958 164.681 247.792 205.003 233.723C208.194 232.538 211.204 231.459 213.89 230.237C259.498 206.866 268.814 158.394 306.251 135.135C314.465 130.063 324.079 126.157 335.844 124.299C374.836 117.577 414.358 112.194 453.959 106.107" stroke="white" stroke-opacity="0.3" stroke-miterlimit="10"/>
<path d="M-311.516 431.974C-299.622 386.29 -261.602 379.142 -225.381 366.783C-207.685 360.513 -190.157 352.696 -176.474 338.217C-134.621 293.658 -151.966 255.645 -94.4513 201.714C-82.1333 190.326 -56.1139 187.146 -25.0906 186.34C43.1036 184.47 126.859 184.799 167.156 169.429C170.347 168.244 173.357 167.164 175.9 165.696C220.757 141.443 230.864 93.501 268.301 70.2418C276.697 65.0656 286.31 61.1599 297.933 59.0551C336.963 51.9816 376.486 46.5979 416.229 40.7579" stroke="white" stroke-opacity="0.3" stroke-miterlimit="10"/>
<path d="M-347.702 369.297C-335.846 323.965 -297.969 316.57 -262.072 304.069C-244.376 297.8 -227.172 289.841 -213.347 275.609C-171.573 231.753 -187.685 193.357 -129.939 141.924C-117.297 130.678 -91.0318 128.343 -60.0477 127.889C8.75555 126.654 90.581 124.479 130.853 107.807C134.044 106.622 136.912 105.296 139.455 103.827C183.702 78.939 194.6 31.5276 231.895 8.02175C240.29 2.8455 249.904 -1.06013 261.526 -3.16492C300.596 -10.5901 340.261 -15.7269 380.004 -21.5669" stroke="white" stroke-opacity="0.3" stroke-miterlimit="10"/>
<path d="M-382.251 309.454C-370.577 264.227 -333.024 256.69 -297.126 244.189C-279.431 237.92 -262.408 230.066 -248.583 215.834C-207.03 172.434 -221.728 133.551 -163.79 84.9679C-150.863 74.2149 -124.313 72.3737 -93.5108 72.0246C-24.0986 71.4242 55.7966 66.7453 96.0435 48.7721C99.0925 47.3407 101.96 46.0142 104.503 44.5458C148.142 19.0221 159.688 -28.1057 196.982 -51.6115C205.378 -56.7878 215.174 -60.7983 226.654 -63.1498C265.581 -70.8217 305.388 -75.7119 345.495 -81.7616" stroke="white" stroke-opacity="0.3" stroke-miterlimit="10"/>
<path d="M-415.566 251.752C-403.75 206.771 -366.663 198.846 -330.948 186.45C-313.434 180.286 -296.229 172.326 -282.586 158.199C-240.968 115.75 -254.577 76.2367 -196.407 30.1522C-183.156 19.541 -156.503 18.2981 -125.598 18.5473C-55.5764 18.5822 22.3494 11.7506 62.9348 -7.73387C65.9838 -9.16529 68.8512 -10.4918 71.3945 -11.9602C114.282 -38.3658 126.618 -84.9631 164.095 -108.574C172.672 -113.855 182.143 -118.007 193.766 -120.112C232.875 -127.889 272.54 -133.026 312.646 -139.075" stroke="white" stroke-opacity="0.3" stroke-miterlimit="10"/>
<path d="M-447.269 196.841C-435.635 151.964 -398.548 144.04 -363.157 131.501C-345.643 125.337 -328.762 117.236 -314.976 103.356C-273.58 61.3626 -285.632 21.6089 -227.413 -21.8726C-213.695 -32.0952 -186.939 -32.7398 -156.215 -32.3857C-85.5848 -31.7156 -9.58921 -41.0511 30.9714 -61.8371C34.0204 -63.2686 36.7454 -64.8419 39.2886 -66.3102C81.3851 -93.2463 94.6938 -139.418 132.028 -163.275C140.463 -168.803 150.076 -172.709 161.556 -175.06C200.523 -183.084 240.512 -188.079 280.619 -194.129" stroke="white" stroke-opacity="0.3" stroke-miterlimit="10"/>
<path d="M-477.338 144.76C-465.742 100.235 -429.122 91.9217 -393.731 79.3834C-376.399 73.324 -359.518 65.223 -345.732 51.3426C-304.414 10.0528 -315.052 -30.1883 -256.965 -70.9619C-242.781 -80.7959 -215.921 -80.8425 -185.379 -80.3835C-113.816 -78.9362 -40.0746 -90.9177 0.461232 -113.005C3.36785 -114.683 6.23525 -116.01 8.6361 -117.725C50.1236 -145.296 64.0806 -191.184 101.415 -215.042C109.849 -220.57 119.645 -224.58 130.982 -227.178C169.988 -235.554 209.977 -240.549 250.226 -246.352" stroke="white" stroke-opacity="0.3" stroke-miterlimit="10"/>
<path d="M-506.074 94.9874C-494.518 50.8144 -458.04 42.2544 -422.973 29.5743C-405.783 23.2682 -389.084 15.272 -375.156 1.63826C-333.917 -38.9483 -343.18 -79.3252 -285.004 -117.847C-270.496 -127.54 -243.39 -126.741 -212.887 -125.931C-140.715 -123.848 -68.9431 -137.982 -28.3928 -161.723C-25.4862 -163.401 -22.7612 -164.974 -20.3604 -166.689C20.5181 -194.896 35.0838 -240.148 72.457 -264.358C80.8919 -269.885 90.6875 -273.896 102.025 -276.494C140.889 -285.116 181.02 -289.864 221.632 -295.877" stroke="white" stroke-opacity="0.3" stroke-miterlimit="10"/>
</g>
</svg>
